<svg version="1.0" xmlns="http://www.w3.org/2000/svg"
 viewBox="0 0 800.000000 800.000000">
<g transform="translate(-240.000000,1040.000000) scale(0.100000,-0.100000)"
stroke="none">
<path d="M5667 9878 c-15 -14 -50 -88 -92 -193 -37 -93 -71 -176 -77 -182 -8
-10 -218 -13 -988 -13 -917 0 -979 -1 -998 -17 -19 -16 -28 -68 -83 -500 -59
-458 -61 -483 -45 -508 l16 -25 3137 2 3137 3 15 26 c13 24 10 66 -43 465 -32
242 -60 457 -63 478 -3 21 -14 47 -25 58 -17 17 -58 18 -997 18 -771 0 -981 3
-989 13 -6 6 -42 91 -81 187 -40 97 -80 183 -92 193 -20 16 -76 17 -865 17
l-843 0 -24 -22z"/>
<path d="M3785 8200 c-22 -24 -29 131 75 -1640 119 -2045 158 -2707 180 -3095
27 -466 28 -483 51 -506 19 -19 81 -19 2443 -19 2309 0 2425 1 2446 18 24 19
19 -46 285 3777 110 1583 102 1441 80 1465 -18 20 -26 20 -666 20 l-648 0 -15
-22 c-14 -20 -16 -247 -16 -2219 0 -1994 -1 -2197 -16 -2203 -23 -9 -267 -7
-281 2 -9 6 -13 514 -15 2211 -3 2167 -3 2203 -22 2217 -17 12 -99 14 -482 14
-417 0 -463 -2 -475 -17 -12 -13 -15 -372 -19 -2222 l-5 -2206 -130 -3 c-71
-1 -140 0 -152 3 l-23 5 -2 2206 c-3 2170 -3 2206 -22 2220 -17 12 -103 14
-512 14 -445 0 -493 -2 -505 -17 -12 -13 -15 -372 -19 -2222 l-5 -2206 -130
-3 c-71 -1 -140 0 -152 3 l-23 5 0 2193 c0 1747 -3 2197 -13 2217 l-13 25
-590 3 c-580 2 -591 2 -609 -18z"/>
</g>
</svg>
