<svg xmlns="http://www.w3.org/2000/svg" viewBox="0 0 1325.3333 545.33331" height = '64px' width = '135px'>
    <g fill="#61DAFB">
        <path
    d="m 772.57687,540.48798 c -7.90482,-7.90482 -10.24688,-14.74938 -9.7047,-28.36155 l 0.46114,-11.57776 -11.73785,-14.80873 c -6.75828,-8.5264 -13.26317,-15.39616 -15.33333,-16.19339 -1.97752,-0.76154 -12.89548,-4.42138 -24.26215,-8.13296 -25.51217,-8.33054 -33.15808,-8.7176 -55.0761,-2.78806 -14.20356,3.84252 -22.39934,8.01606 -38.076,19.38952 -5.81324,4.21752 -5.81914,4.23033 -6.19075,13.48108 -1.30757,32.54995 -34.09829,47.08446 -54.72261,24.25581 -7.87247,-8.71388 -10.49879,-15.95333 -10.55149,-29.08529 -0.0375,-9.33736 0.50352,-12.39003 3.07186,-17.33334 10.92863,-21.03433 33.01956,-25.62357 49.23931,-10.22914 l 4.36086,4.13897 6.02186,-6.02185 6.02185,-6.02186 -25.71605,-2.85825 c -18.156,-2.01799 -28.62655,-3.86019 -35.61627,-6.2664 -5.44512,-1.87447 -12.52765,-3.40813 -15.73896,-3.40813 -4.71093,0 -22.43524,-3.41575 -51.7931,-9.98132 -2.34803,-0.52511 -3.51032,0.99516 -7.69772,10.0685 -2.71266,5.87786 -5.72694,10.992 -6.69839,11.36479 -0.97144,0.37277 -4.70747,0.18685 -8.30228,-0.41317 -8.21272,-1.37083 -8.79612,-3.76683 -3.89696,-16.0047 2.45339,-6.12843 3.06306,-9.06083 2.01808,-9.70666 -0.82352,-0.50896 -7.60826,-2.22788 -15.07721,-3.81981 -7.46896,-1.59195 -19.27992,-4.12143 -26.24659,-5.6211 -23.56673,-5.07301 -29.94601,-6.43002 -56,-11.91241 -14.3,-3.00907 -27.82381,-6.03911 -30.05293,-6.73344 -4.30413,-1.34065 -29.66424,-6.74948 -62.61373,-13.35431 -15.93079,-3.19338 -20.94948,-3.73872 -24.66667,-2.68029 -2.56666,0.73083 -6.21053,1.64323 -8.09746,2.02755 -1.88695,0.38433 -5.66359,2.21398 -8.39255,4.0659 -5.56463,3.77627 -12.9622,4.43703 -15.49589,1.38411 -2.2728,-2.73855 -0.70774,-6.01697 2.87238,-6.01697 3.00374,0 13.11352,-6.18747 13.11352,-8.02583 0,-0.54807 -1.05,-1.32372 -2.33333,-1.72367 -1.28333,-0.39994 -18.83333,-6.51496 -39,-13.58892 -20.16666,-7.07396 -38.68516,-13.46382 -41.1522,-14.1997 -2.46705,-0.73587 -4.76209,-2.39545 -5.10008,-3.68796 -0.53685,-2.05292 -1.27526,-2.17365 -5.84086,-0.95503 -3.92971,1.0489 -5.63409,0.98722 -6.86995,-0.24865 -2.48576,-2.48576 0.12436,-5.56192 7.01117,-8.26304 l 5.95192,-2.33444 0.1449,-21.15305 c 0.0797,-11.63418 -0.16148,-27.89159 -0.53594,-36.12759 -0.67586,-14.86556 -0.70337,-14.9689 -3.7781,-14.19718 -2.43523,0.6112 -3.43519,0.0357 -4.6781,-2.69212 -1.29301,-2.83784 -2.48964,-3.46948 -6.57294,-3.46948 -5.75179,0 -32.352736,-2.82099 -63.46967,-6.73084 -11.856086,-1.48972 -23.113878,-2.31772 -25.017314,-1.83999 -1.903436,0.47773 -4.203001,0.28179 -5.110145,-0.43544 C 33.252099,239.76504 9.9419219,237.09831 4.5740592,238.10534 1.8548105,238.61547 0,238.42564 0,237.63722 c 0,-1.59547 4.3100863,-2.8618 10.666666,-3.13394 3.73041,-0.15969 3.997912,-0.32584 1.333334,-0.82812 -4.7230986,-0.89032 34.011846,-11.73361 50.901597,-14.24917 16.660933,-2.48148 29.098401,-0.82784 29.098401,3.86883 0,1.05864 2.06602,2.12304 5,2.57596 9.693292,1.49636 32.709802,3.46254 40.533122,3.46254 h 7.91724 l -0.38059,-7 c -0.2356,-4.33353 -1.15175,-7.57826 -2.40508,-8.51806 -1.11347,-0.83494 -9.94415,-3.18446 -19.62373,-5.22115 -9.67957,-2.03669 -18.29148,-4.13092 -19.13757,-4.65383 -1.08067,-0.66789 -0.50177,-2.71954 1.94579,-6.896 3.60358,-6.14902 4.34206,-9.04429 2.30691,-9.04429 -0.64748,0 -2.73972,3.3 -4.64941,7.33333 -1.90969,4.03334 -3.929935,7.33371 -4.489425,7.33416 -0.559492,4.6e-4 -0.804339,-3.07384 -0.544104,-6.83177 0.328699,-4.74661 0.0234,-6.55462 -1,-5.92213 -0.810235,0.50075 -1.473153,3.17505 -1.473153,5.94288 0,2.76782 -0.318552,5.35097 -0.707895,5.74032 -0.649028,0.64902 -21.908936,-3.25515 -27.828486,-5.11044 -2.003163,-0.62782 -0.881947,-1.6735 5.333333,-4.97397 5.587813,-2.96728 7.869715,-4.95227 7.869715,-6.84571 0,-1.46667 0.48541,-3.41667 1.078689,-4.33333 0.807304,-1.24735 -0.450636,-1.66667 -5,-1.66667 -3.343279,0 -6.078689,-0.47399 -6.078689,-1.05329 0,-2.59592 38.763335,-16.94663 49.897565,-18.47274 3.35634,-0.46004 6.10243,-1.25905 6.10243,-1.77558 0,-0.51654 3.24486,-1.71758 7.21079,-2.66899 7.05243,-1.69185 7.22168,-1.84395 7.70624,-6.92513 0.27251,-2.85742 0.0903,-10.42482 -0.40507,-16.81644 -0.49529,-6.39164 -1.2897,-22.42116 -1.76538,-35.621161 -0.47567,-13.199999 -1.37423,-32.967717 -1.99682,-43.928262 -0.62258,-10.960543 -0.83372,-20.705486 -0.46918,-21.655426 1.14981,-2.996369 -3.83815,-3.629249 -10.35668,-1.314073 -7.07555,2.513013 -9.04307,2.791788 -7.19056,1.018816 0.69666,-0.666755 4.43162,-2.138856 8.29991,-3.271338 3.86828,-1.132482 7.87058,-2.896392 8.89398,-3.919802 3.92348,-3.923478 54.18088,-9.363553 68.73944,-7.440649 1.1,0.14529 3.65,0.169642 5.66666,0.05412 3.10666,-0.177968 3.66667,-0.79919 3.66667,-4.067397 0,-3.5311223 1.93293,-5.4759849 5.44239,-5.4759849 0.67334,0 1.22428,1.8354101 1.22428,4.0786892 0,2.3796007 0.55544,3.7354107 1.33333,3.2546437 2.09948,-1.29755 1.5842,-8.6540931 -0.66667,-9.5178309 -1.1,-0.4221096 -2,-1.3243889 -2,-2.0050652 0,-0.69804767 1.16258,-0.61540492 2.66667,0.1895634 2.10373,1.1258826 2.66667,2.7917644 2.66667,7.8914028 0,5.1846069 0.49176,6.5928429 2.48416,7.1138699 2.7946,0.730803 5.99581,8.744134 14.77889,36.994725 3.07791,9.9 9.79548,31.069367 14.92796,47.043039 8.26328,25.71755 15.75011,50.09736 20.05511,65.30664 1.07269,3.78976 2.27577,5.20429 4.92021,5.78498 10.29737,2.26124 16.68505,5.25708 22.65656,10.62598 3.61291,3.24832 7.18076,5.90602 7.92857,5.90602 0.7478,0 1.55964,0.52628 1.8041,1.16952 0.47572,1.25184 22.1127,6.84867 41.77777,10.80664 37.38736,7.52492 78.46058,16.25423 116.66666,24.79521 4.76667,1.06559 13.57675,2.82407 19.57796,3.90772 6.00121,1.08366 15.90121,3.1152 22,4.51454 6.09879,1.39934 14.38871,2.97041 18.42204,3.49128 4.03333,0.52085 7.93333,1.39324 8.66667,1.93861 1.32673,0.98669 12.87152,4.0816 14.92376,4.00075 2.18504,-0.0861 -4.18523,-3.9576 -6.51194,-3.9576 -1.3265,0 -2.41182,-0.52248 -2.41182,-1.16106 0,-2.50506 38.41624,-4.02525 52.96146,-2.09576 6.02247,0.79891 6.72064,0.61644 7.38667,-1.93044 1.0003,-3.82517 8.91169,-4.04849 9.89734,-0.27937 0.46922,1.79429 2.28043,2.75987 6.20851,3.30977 8.22841,1.15195 35.04833,1.28848 36.82976,0.1875 0.84913,-0.52479 3.15765,-0.34323 5.13007,0.40348 1.9724,0.74669 8.2713,1.73269 13.99756,2.19109 5.72625,0.45841 12.02625,1.44952 14,2.20248 1.97374,0.75297 6.10084,1.84024 9.17133,2.41617 5.33664,1.001 5.65532,0.87184 7.23027,-2.93042 1.55953,-3.76503 1.74521,-3.84406 3.47469,-1.47884 1.00492,1.3743 2.25129,2.52822 2.76973,2.56428 2.81099,0.19545 6.78536,2.26817 7.3949,3.85661 0.98344,2.5628 -0.4751,7.41117 -2.22951,7.41117 -0.8064,0 1.79179,2.099 5.77377,4.66446 3.98199,2.56544 8.10107,6.08361 9.15352,7.81814 1.86357,3.07134 2.55453,3.17858 26.45305,4.10575 13.49672,0.52363 32.52467,0.52887 42.28431,0.012 12.64729,-0.67024 18.01176,-0.50847 18.67405,0.56313 1.25283,2.02712 5.74638,1.91326 6.43851,-0.16314 0.78505,-2.35515 19.37535,-2.2954 20.83537,0.0669 0.76996,1.24583 6.10255,1.85505 18.95137,2.16516 9.83396,0.23733 18.77992,0.6572 19.87992,0.93302 1.67507,0.42004 1.93132,-1.17729 1.57724,-9.83181 l -0.42274,-10.33333 h 5.25949 c 6.53189,0 7.60003,1.28068 9.60443,11.51553 1.56438,7.98812 1.71758,8.20125 6.45866,8.98533 2.67094,0.44171 7.96583,0.80972 11.7664,0.81779 5.74638,0.012 7.0527,-0.43443 7.75652,-2.65198 0.58186,-1.83326 2.01738,-2.66667 4.59326,-2.66667 3.99954,0 7.51537,3.00019 6.13437,5.23469 -1.01835,1.64772 30.15635,2.55211 39.76621,1.15361 7.73003,-1.12492 33.63292,1.87348 42.00712,4.86255 3.2089,1.14536 6.8854,2.08248 8.1701,2.08248 1.2847,0 3.0302,0.83681 3.8791,1.85957 1.2898,1.55411 7.1904,3.19562 12.7832,3.55618 3.4051,0.21952 8.9189,-1.1347 10.3185,-2.5343 1.7546,-1.75462 15.9931,-2.05678 25.8287,-0.54812 5.5644,0.85351 4.1755,1.10722 -9.4806,1.73182 -11.5,0.526 -5.7713,0.80725 20.3687,1 33.8772,0.24981 37.1198,0.0653 47.3333,-2.69375 9.4366,-2.54913 14.4025,-2.96724 35.6314,-3 l 24.6666,-0.038 8.4665,4.29344 8.4665,4.29344 34.2002,0.12787 c 35.6361,0.1332 45.7067,1.24606 57.5569,6.36033 6.3755,2.75153 9.8375,5.94471 11.1218,10.25825 1.0974,3.68608 -0.2027,5.13379 -7.1452,7.95619 -5.3821,2.18804 -9.9134,2.41469 -44,2.20075 l -38,-0.23851 -6,12.18429 c -8.4191,17.09686 -10.9549,17.42208 -12.6469,1.62202 -0.7664,-7.15602 -1.4165,-8.78122 -3.98,-9.94924 -3.8214,-1.74114 -14.4175,0.33592 -22.3445,4.37997 -5.2984,2.70305 -6.6831,2.78791 -30.549,1.87197 l -24.9989,-0.95944 -3.7403,6.77844 c -2.0572,3.72814 -4.3338,6.59003 -5.0591,6.35975 -0.7253,-0.23027 -2.0832,-3.12531 -3.0175,-6.43343 l -1.6988,-6.01476 -30.9825,-0.85749 c -31.4161,-0.86948 -37.7045,-0.48069 -36.0306,2.22764 0.507,0.8204 1.0701,2.40219 1.2512,3.51508 0.2929,1.80016 2.2191,10.48461 3.1103,14.02344 0.1846,0.73333 0.1897,1.78333 0.011,2.33333 -1.1094,3.41821 0.5498,4.84455 11.3421,9.75028 29.6067,13.45795 35.4916,16.92473 40.9206,24.10637 8.2897,10.9658 9.8654,20.59019 5.0123,30.61532 -5.4195,11.1952 -16.2223,16.16408 -50.2266,23.10235 -10.8384,2.21148 -26.0063,4.92072 -33.7063,6.02052 -25.3385,3.61912 -40.00088,6.55209 -39.94145,7.98961 0.0321,0.77855 0.84888,3.62887 1.81487,6.33403 0.96597,2.70516 1.30285,5.40516 0.74862,6 -1.38256,1.48382 -3.62612,12.73586 -2.94617,14.77572 0.30356,0.91066 1.0938,1.32085 1.75611,0.91152 0.66229,-0.40932 0.86193,0.14764 0.44364,1.23769 -0.43668,1.13799 1.51743,4.99977 4.58915,9.06924 6.90263,9.14464 8.20193,12.77797 8.20193,22.93505 0,23.46429 -21.37178,38.42244 -38.60376,27.01885 -10.48968,-6.94174 -14.89734,-23.16432 -10.03675,-36.94069 2.58303,-7.32106 7.70256,-14.03902 12.64735,-16.59606 2.59901,-1.344 4.31517,-3.61667 5.22826,-6.92363 0.74762,-2.7076 1.08487,-5.19731 0.74948,-5.53269 -0.33538,-0.3354 0.23234,-1.26914 1.26163,-2.07498 1.42395,-1.11484 1.69901,-3.72009 1.15036,-10.89557 l -0.72108,-9.4304 -4.83775,0.78168 c -3.6958,0.59717 -4.93832,1.4856 -5.26381,3.76373 -0.529,3.70248 -2.44524,3.87158 -3.57393,0.31539 -0.72107,-2.27189 -2.01738,-2.66667 -8.75652,-2.66667 -4.35058,0 -7.91182,0.45 -7.91386,1 -0.003,0.55 1.33196,3.52178 2.96443,6.60394 2.49461,4.70989 3.71832,5.68453 7.67037,6.1092 3.66632,0.39394 3.23355,0.54772 -1.96442,0.69797 l -6.66667,0.19271 -2.91503,-6.63524 -2.91501,-6.63524 h -13.39291 c -13.17378,0 -13.4066,0.0545 -14.22953,3.33333 -0.46013,1.83333 -1.30652,3.33333 -1.88085,3.33333 -0.57434,0 -1.42072,-1.5 -1.88086,-3.33333 -0.90849,-3.61972 -3.63541,-4.21164 -9.36568,-2.033 -1.88108,0.71519 -3.42013,1.04835 -3.42013,0.74037 0,-0.30798 3.35196,-6.89313 7.4488,-14.63366 4.71272,-8.9042 6.79419,-14.07149 5.66667,-14.06767 -0.98018,0.003 -4.97711,6.30332 -8.88207,14 -6.5764,12.96208 -7.38752,13.99396 -11,13.99396 -4.24429,0 -5.33012,2.12377 -1.56673,3.06439 1.28333,0.32076 0.53333,0.3542 -1.66667,0.0743 -2.2,-0.27988 -13.3,-0.75373 -24.66667,-1.05301 -11.36666,-0.29927 -37.16666,-1.01855 -57.33333,-1.59839 -20.16666,-0.57984 -38.76666,-1.07669 -41.33333,-1.1041 -4.48349,-0.0479 -4.66173,0.13465 -4.54116,4.65053 0.0872,3.26296 2.28208,8.05401 7.17744,15.66667 3.87855,6.03145 7.21115,10.96628 7.40576,10.96628 0.19461,0 3.77569,-1.8 7.95796,-4 9.07089,-4.77156 16.19859,-5.152 23.91237,-1.2763 17.70886,8.89763 20.73354,35.65455 5.93143,52.47063 -7.57264,8.60296 -13.65861,11.41282 -26.45651,12.21481 l -10.56078,0.66181 -4.91628,-4.91629 z m 11.312,3.02593 c -0.30556,-0.26733 -2.05556,-1.20043 -3.88889,-2.07355 -3.14303,-1.49686 -3.18557,-1.4691 -0.74516,0.48606 2.124,1.70168 6.46381,3.18837 4.63405,1.58749 z M 578.99999,523.11694 c -0.91667,-0.36988 -2.41667,-0.36988 -3.33334,0 -0.91666,0.36988 -0.16666,0.67252 1.66667,0.67252 1.83333,0 2.58333,-0.30264 1.66667,-0.67252 z m 8,0 c -0.91667,-0.36988 -2.41667,-0.36988 -3.33334,0 -0.91666,0.36988 -0.16666,0.67252 1.66667,0.67252 1.83333,0 2.58333,-0.30264 1.66667,-0.67252 z m 179.24414,-2.03363 c -0.42563,-1.06364 -0.74158,-0.74771 -0.80555,0.80556 -0.0579,1.40555 0.25724,2.19305 0.70029,1.75 0.44306,-0.44305 0.49042,-1.59307 0.1052,-2.55556 z m 200.82865,-1.73325 c -1.21958,-2.55747 -2.45411,-4.41322 -2.74342,-4.12391 -0.60994,0.60995 3.4376,8.77383 4.34995,8.77383 0.33597,0 -0.38697,-2.09247 -1.60653,-4.64992 z m -393.85057,2.83052 c -0.30556,-0.26734 -2.05556,-1.20043 -3.88889,-2.07355 -3.14303,-1.49687 -3.18557,-1.46911 -0.74516,0.48605 2.124,1.70168 6.46381,3.18838 4.63405,1.5875 z m 19.435,-0.832 c 0.46712,-0.75582 -0.0681,-0.97934 -1.25464,-0.52402 -2.30989,0.88639 -2.73252,1.84208 -0.81461,1.84208 0.69005,0 1.62123,-0.59313 2.06925,-1.31806 z m 381.98269,-0.71416 c -0.92763,-1.11772 -1.96118,-1.75764 -2.29678,-1.42204 -0.92465,0.92466 0.95407,3.45426 2.56547,3.45426 0.88413,0 0.78297,-0.76504 -0.26869,-2.03222 z m -409.30658,-2.38499 c 0,-0.22947 -1.95,-2.17947 -4.33333,-4.33333 l -4.33334,-3.91612 3.91612,4.33333 c 3.65038,4.03928 4.75055,4.9462 4.75055,3.91612 z m 419.82516,-8.0388 c 1.7615,-2.12247 0.67286,-3.54399 -2.71406,-3.54399 -2.38878,0 -3.32502,2.67498 -1.55555,4.44444 1.34683,1.34684 2.62893,1.07644 4.26961,-0.90045 z M 606.40914,505.9647 c -0.41052,-0.41052 -1.15606,0.32948 -1.65677,1.64444 -0.72357,1.90026 -0.57043,2.05341 0.7464,0.7464 0.91123,-0.90446 1.32089,-1.98032 0.91037,-2.39084 z m 159.83499,0.45194 c -0.42563,-1.06363 -0.74158,-0.7477 -0.80555,0.80556 -0.0579,1.40555 0.25724,2.19306 0.70029,1.75 0.44306,-0.44305 0.49042,-1.59306 0.1052,-2.55556 z m -1.71412,-10.22726 -3.78815,-3.52273 2.96239,3.41926 c 1.62932,1.8806 3.00977,4.2806 3.06766,5.33334 0.0849,1.54489 0.24423,1.56484 0.82576,0.10346 0.39627,-0.99584 -0.98418,-3.39584 -3.06766,-5.33333 z m -212.95254,-0.4394 c -0.42563,-1.06364 -0.74158,-0.74771 -0.80555,0.80556 -0.0579,1.40555 0.25724,2.19305 0.70029,1.75 0.44306,-0.44305 0.49042,-1.59307 0.1052,-2.55556 z m 58.67983,-7.39129 c -0.33805,-1.2973 -0.63688,-0.55871 -0.66405,1.64129 -0.0272,2.2 0.24941,3.26141 0.61465,2.35871 0.36523,-0.90271 0.38746,-2.70271 0.0495,-4 z m -59.98301,-4.69204 c -0.3178,-1.65 -0.57782,-0.3 -0.57782,3 0,3.3 0.26002,4.65 0.57782,3 0.31782,-1.65 0.31782,-4.35 0,-6 z m 207.05902,3 c -2.32324,-2.93334 -4.52408,-5.33334 -4.89074,-5.33334 -0.36667,0 1.23417,2.4 3.55741,5.33334 2.32324,2.93333 4.52408,5.33333 4.89075,5.33333 0.36666,0 -1.23418,-2.4 -3.55742,-5.33333 z m 227.33333,-6.66667 c -0.45322,-0.73333 -1.95322,-1.33333 -3.33333,-1.33333 -1.38011,0 -2.88011,0.6 -3.33333,1.33333 -0.48207,0.78 0.90126,1.33333 3.33333,1.33333 2.43207,0 3.8154,-0.55333 3.33333,-1.33333 z m -237.46166,-6.06955 c -4.89235,-5.97045 -9.46937,-9.44386 -10.75301,-8.16022 -0.35912,0.35913 0.53936,1.03138 1.99662,1.4939 1.45728,0.46252 4.84267,3.5173 7.52308,6.7884 2.68043,3.27111 5.17351,5.94747 5.54018,5.94747 0.36666,0 -1.57143,-2.73129 -4.30687,-6.06955 z m -195.62751,1.81955 c -0.42563,-1.06364 -0.74158,-0.74771 -0.80555,0.80556 -0.0579,1.40555 0.25724,2.19305 0.70029,1.75 0.44306,-0.44305 0.49042,-1.59307 0.1052,-2.55556 z m 73.25525,-9.89053 c 7.242,-5.57731 15.37521,-11.72731 18.0738,-13.66667 7.31022,-5.25356 8.72496,-8.53857 6.07262,-14.1006 -1.85593,-3.89192 -1.88936,-4.63593 -0.23676,-5.27009 2.84415,-1.0914 2.3374,-4.38152 -1.03908,-6.74651 l -2.96333,-2.0756 h 2.96333 c 1.62984,0 2.96335,0.5789 2.96335,1.28643 0,0.70753 1.2724,1.96739 2.82757,2.79968 1.55516,0.8323 2.49475,0.97477 2.08798,0.31659 -0.40678,-0.65818 -0.2068,-2.05876 0.4444,-3.11242 0.81038,-1.31124 0.25673,-2.93668 -1.75466,-5.15133 -1.61624,-1.77959 -2.18862,-2.80345 -1.27196,-2.27525 0.91667,0.52818 1.66667,0.71674 1.66667,0.41901 0,-1.27964 -4.93003,-6.00375 -7.92007,-7.58927 l -3.2534,-1.72516 2.94872,-2.38773 c 9.05371,-7.33124 -10.62562,-1.94807 -29.89382,8.17731 -6.66522,3.50254 -16.51146,7.70256 -21.88055,9.33337 -11.40933,3.46548 -11.88368,2.65001 8.16971,14.04474 7.06049,4.01192 13.86958,8.4351 15.1313,9.8293 2.19668,2.42729 2.03435,2.81253 -3.82413,9.07572 -3.36499,3.59745 -5.67408,7.0311 -5.13129,7.63034 0.54277,0.59924 0.35821,0.73294 -0.41014,0.29708 -0.76834,-0.43585 -2.26657,-0.25502 -3.3294,0.40184 -1.38834,0.85804 -3.43509,-0.19873 -7.26966,-3.75346 l -5.33727,-4.94776 5.43067,5.99881 c 2.98686,3.29936 6.4507,7.64883 7.69741,9.66549 1.24669,2.01667 3.07763,3.66667 4.06872,3.66667 0.99111,0 7.72727,-4.56324 14.96927,-10.14053 z m -70.99065,5.40461 c 0.45532,-1.18656 0.2318,-1.72176 -0.52402,-1.25464 -0.72493,0.44803 -1.31806,1.3792 -1.31806,2.06925 0,1.91791 0.95569,1.49528 1.84208,-0.81461 z m 436.82457,-0.81876 c 0,-0.76851 -0.94889,-1.03316 -2.10865,-0.58812 -1.62571,0.62384 -1.42072,-0.30393 0.89504,-4.05091 l 3.00368,-4.86005 -3.22837,-6.10225 -3.22836,-6.10226 -0.3917,10.4222 c -0.244,6.49239 0.19003,11.12312 1.15108,12.28112 1.6237,1.95644 3.90728,1.37216 3.90728,-0.99973 z m -429.91611,-9.44532 3.91612,-4.33333 -4.33333,3.91612 c -4.03928,3.65037 -4.9462,4.75054 -3.91612,4.75054 0.22947,0 2.17947,-1.95 4.33333,-4.33333 z m 167.35635,1.57347 c -3.97455,-1.41076 -7.46206,-2.32942 -7.75,-2.04147 -0.6777,0.67768 10.35749,4.58839 12.97643,4.59865 1.1,0.004 -1.2519,-1.14642 -5.22643,-2.55718 z m -83.00244,-3.93544 c 2.85846,-0.86302 3.01988,-1.09814 0.81705,-1.1901 -1.50984,-0.0631 -3.90984,0.8299 -5.33333,1.98428 -1.4235,1.15438 -1.79118,1.68992 -0.81706,1.19008 0.97412,-0.49982 3.37412,-1.39276 5.33334,-1.98426 z m 67.56221,-1.3047 c -3.66667,-1.353 -7.56667,-2.45998 -8.66667,-2.45998 -1.1,0 1,1.10698 4.66667,2.45998 3.66667,1.353 7.56667,2.45999 8.66667,2.45999 1.1,0 -1,-1.10699 -4.66667,-2.45999 z m -59.69444,-0.80556 c -0.44305,-0.44305 -1.59307,-0.49041 -2.55556,-0.1052 -1.06364,0.42563 -0.74771,0.74158 0.80556,0.80555 1.40555,0.0579 2.19305,-0.25724 1.75,-0.70029 z m -66.66666,-2.66666 c -0.44306,-0.44306 -1.59307,-0.49042 -2.55556,-0.1052 -1.06364,0.42562 -0.74771,0.74157 0.80556,0.80554 1.40554,0.0579 2.19305,-0.25724 1.75,-0.70029 z m 113.69443,-0.52778 c -1.1,-0.71088 -2.9,-1.25952 -4,-1.2192 -1.31874,0.0483 -1.09165,0.46363 0.66667,1.2192 3.66545,1.5751 5.77063,1.5751 3.33333,0 z m -11.62644,-2.30764 c -3.09453,-0.27962 -8.49453,-0.28296 -12,-0.008 -3.50545,0.27556 -0.97356,0.50436 5.62644,0.50842 6.6,0.004 9.46811,-0.2214 6.37356,-0.50103 z m 253.44194,-2.35902 c 0.42211,-1.1 0.1863,-2 -0.52401,-2 -0.71032,0 -1.29149,0.9 -1.29149,2 0,1.1 0.23581,2 0.52401,2 0.28821,0 0.86937,-0.9 1.29149,-2 z m -468.42104,-3.44754 c 0.81855,-1.52946 1.19444,-3.07468 0.83532,-3.43381 -0.35913,-0.35912 -1.06195,0.63567 -1.56183,2.21063 -0.57973,1.8266 -1.62897,2.58724 -2.89745,2.10048 -1.09372,-0.41971 -3.13576,-0.7631 -4.53784,-0.7631 -1.92048,0 -2.41132,-0.73996 -1.99004,-3 0.30758,-1.65 0.60382,-3.48541 0.65831,-4.07869 0.0545,-0.59328 0.69221,-0.71211 1.41714,-0.26408 0.76254,0.47128 0.97526,-0.0787 0.50472,-1.30492 -0.44733,-1.16573 0.22862,-4.84783 1.5021,-8.18241 2.49952,-6.54488 1.55006,-9.2488 -2.84992,-8.11627 -2.03713,0.52435 -1.94424,0.6644 0.52504,0.79171 3.81986,0.19693 3.79217,0.53352 -1,12.15466 -2.2,5.33506 -4,10.47956 -4,11.43224 0,0.95502 1.94416,1.9734 4.33333,2.2699 2.38333,0.29577 5.06223,0.63378 5.95309,0.75114 0.89087,0.11734 2.28947,-1.038 3.10803,-2.56748 z m 139.60554,1.86176 c -1.28333,-0.33536 -3.38333,-0.33536 -4.66666,0 -1.28334,0.33538 -0.23334,0.60978 2.33333,0.60978 2.56667,0 3.61667,-0.2744 2.33333,-0.60978 z m -11.98445,-1.33033 c -1.27479,-0.33372 -3.67479,-0.34583 -5.33333,-0.0269 -1.65855,0.31892 -0.61555,0.59197 2.31778,0.60677 2.93334,0.0148 4.29034,-0.24615 3.01555,-0.57987 z m -13.34888,-1.33633 c -1.28333,-0.33536 -3.38333,-0.33536 -4.66666,0 -1.28334,0.33537 -0.23334,0.60977 2.33333,0.60977 2.56667,0 3.61667,-0.2744 2.33333,-0.60977 z m -12.66666,-1.29727 c -0.91667,-0.36988 -2.41667,-0.36988 -3.33334,0 -0.91666,0.36988 -0.16666,0.67252 1.66667,0.67252 1.83333,0 2.58333,-0.30264 1.66667,-0.67252 z m -7.36111,-1.25585 c -0.44305,-0.44306 -1.59307,-0.49042 -2.55556,-0.1052 -1.06364,0.42562 -0.74771,0.74157 0.80556,0.80554 1.40555,0.0579 2.19305,-0.25724 1.75,-0.70029 z m 92.3611,-0.37227 c 0,-0.6478 1.15288,-1.47931 2.56198,-1.84779 1.58764,-0.41518 3.09876,-2.61409 3.97346,-5.78204 1.93027,-6.99083 -0.30948,-8.60374 -2.54428,-1.83221 -0.98749,2.99212 -2.29408,5.74839 -2.90352,6.12505 -1.32974,0.82183 -4.22868,-1.91664 -5.45373,-5.15185 -1.12007,-2.95796 -3.09393,-2.99699 -4.21203,-0.0833 -0.52374,1.36484 -0.0553,2.70229 1.19068,3.39958 1.12976,0.63224 2.05411,2.31972 2.05411,3.74995 0,1.71152 0.91153,2.60041 2.66667,2.60041 1.46666,0 2.66666,-0.53002 2.66666,-1.17782 z m 343.33332,-1.48884 c 0.4532,-0.73333 0.1886,-1.33333 -0.588,-1.33333 -0.7766,0 -1.412,0.6 -1.412,1.33333 0,0.73333 0.2646,1.33333 0.588,1.33333 0.3234,0 0.9588,-0.6 1.412,-1.33333 z M 478.40915,433.9647 c -0.41052,-0.41052 -1.15607,0.32948 -1.65678,1.64444 -0.72357,1.90027 -0.57042,2.05341 0.7464,0.7464 0.91123,-0.90445 1.3209,-1.98032 0.91038,-2.39084 z m 54.92417,0.70195 c -1.1,-0.71088 -3.5,-1.2307 -5.33333,-1.15516 -3.07512,0.12666 -3.02348,0.21617 0.66666,1.15516 5.76328,1.4665 6.93592,1.4665 4.66667,0 z m 11,0.39236 c -1.65,-0.31782 -4.35,-0.31782 -6,0 -1.65,0.3178 -0.3,0.57782 3,0.57782 3.3,0 4.65,-0.26002 3,-0.57782 z m -21.33333,-2.60874 c -0.91667,-0.36988 -2.41667,-0.36988 -3.33334,0 -0.91666,0.36988 -0.16666,0.67252 1.66667,0.67252 1.83333,0 2.58333,-0.30264 1.66667,-0.67252 z m -6.02778,-1.25585 c -0.44305,-0.44305 -1.59306,-0.49041 -2.55556,-0.1052 -1.06364,0.42563 -0.7477,0.74157 0.80556,0.80555 1.40555,0.0579 2.19306,-0.25724 1.75,-0.7003 z m 351.58333,-0.86111 c 0.62221,-1.33333 0.93333,-1.33333 1.55554,0 0.42779,0.91667 1.36319,1.66667 2.0787,1.66667 0.7155,0 0.93009,-0.6 0.47686,-1.33333 -0.45322,-0.73334 -0.22404,-1.33334 0.5093,-1.33334 0.73333,0 1.70414,0.6 2.15737,1.33334 0.45323,0.73333 1.42404,1.33333 2.15737,1.33333 0.73334,0 0.96252,-0.6 0.5093,-1.33333 -0.45323,-0.73334 0.11133,-1.33334 1.25464,-1.33334 1.14328,0 2.07869,-0.64776 2.07869,-1.43945 0,-0.97528 -2.74504,-1.14549 -8.51241,-0.52786 -4.68183,0.50138 -9.88558,0.47577 -11.56389,-0.0569 l -3.05148,-0.9685 3.23056,-1.78974 c 1.77679,-0.98434 7.28055,-1.81098 12.23055,-1.83696 5.07962,-0.0267 9,-0.62805 9,-1.38058 0,-0.73334 -2.73541,-1.33334 -6.07869,-1.33334 -3.34328,0 -5.74316,-0.54289 -5.33308,-1.20642 0.41009,-0.66354 3.14551,-0.88454 6.07869,-0.49111 3.50156,0.46965 5.33308,0.19712 5.33308,-0.79357 0,-0.87555 2.2754,-1.5089 5.42099,-1.5089 2.98155,0 6.59395,-0.62774 8.02756,-1.39498 1.43361,-0.76726 3.33552,-0.94448 4.22648,-0.39384 2.55553,1.57941 9.9268,0.48168 16.60639,-2.47303 4.41874,-1.95461 7.6865,-2.49755 11.7116,-1.94584 3.52784,0.48355 6.17209,0.17592 7.18374,-0.83573 1.08995,-1.08995 1.90242,-1.1554 2.54543,-0.20506 0.9934,1.46819 8.86176,1.40926 18.94448,-0.14189 6.60123,-1.01555 10.30769,-1.16409 17.33333,-0.69465 2.56667,0.17149 12.83138,0.27245 22.81045,0.22434 22.73981,-0.1096 64.29971,1.1931 65.14881,2.04212 0.3503,0.35038 1.3888,-4.57037 2.3076,-10.935 1.8438,-12.7724 5.577,-20.63418 12.6071,-26.5496 5.0393,-4.24029 5.5203,-3.78756 -12.2073,-11.48905 -6.9667,-3.02657 -14.4088,-6.33645 -16.5382,-7.35532 -2.1293,-1.01885 -4.3858,-1.85247 -5.0145,-1.85247 -0.6287,0 -3.6865,-1.13508 -6.7952,-2.52239 -3.1086,-1.38732 -6.7021,-2.8685 -7.9854,-3.2915 -1.3691,-0.45126 -2.3334,-2.10488 -2.3334,-4.00161 0,-3.69649 -3.3916,-5.69303 -4.5487,-2.67768 -0.4901,1.27724 -2.1032,1.85169 -4.4437,1.58248 -3.4735,-0.39953 -3.6709,-0.78688 -3.6132,-7.08929 0.034,-3.66667 0.5202,-8.20364 1.0815,-10.08218 0.8594,-2.87633 0.4715,-3.66564 -2.4571,-5 -4.5055,-2.05285 -14.07631,-1.96328 -16.8632,0.15783 -1.19777,0.91163 -2.39777,2.79988 -2.66666,4.19611 -0.2689,1.39624 -1.05919,2.38677 -1.75622,2.2012 -0.69702,-0.18558 -1.69465,0.81777 -2.21693,2.22965 -0.7974,2.15555 -2.7316,2.69449 -12.06601,3.36209 -8.6558,0.61907 -11.43274,0.38338 -12.54551,-1.06478 -1.20197,-1.56424 -2.15552,-1.42731 -6,0.86166 -2.51399,1.49682 -5.51539,3.92084 -6.66976,5.38674 -2.81595,3.57586 -8.41509,2.82569 -8.98809,-1.20422 -0.30634,-2.15446 -1.5716,-3.1484 -4.66667,-3.6659 -2.33551,-0.39051 -7.24637,-1.22282 -10.91304,-1.84959 l -6.66667,-1.13956 5.1811,-2.28808 c 2.84958,-1.25845 10.26461,-3.111 16.47781,-4.11679 6.2132,-1.00578 11.68171,-2.24677 12.15224,-2.75774 0.92796,-1.0077 -19.46169,0.28676 -25.53315,1.621 -2.67966,0.58886 -3.61316,0.3296 -3.33333,-0.92576 0.21376,-0.95902 -1.24227,-2.55732 -3.23563,-3.55179 -1.99334,-0.99447 -6.49334,-5.79935 -10,-10.67753 -3.50664,-4.87819 -7.97954,-10.55459 -9.93981,-12.61423 l -3.56409,-3.74476 12.89742,0.106 c 7.0936,0.0583 17.90808,0.52216 24.03222,1.03079 11.12644,0.92408 11.13861,0.92924 16.29353,6.89398 5.67911,6.57127 6.79727,6.13967 2.4244,-0.93578 l -2.81396,-4.5531 3.81396,0.94455 c 2.09768,0.51951 4.57732,2.01808 5.51033,3.33017 2.60128,3.6582 5.12972,5.97544 13.37871,12.26116 11.00347,8.38462 12.06107,8.87683 9.03277,4.20396 -8.61182,-13.28862 -9.19546,-13.9484 -12.33902,-13.9484 -4.98491,0 -11.10216,-5.2022 -11.10216,-9.44142 0,-3.9251 -3.32568,-6.23902 -4.51448,-3.14106 -0.97982,2.55336 -3.84574,2.39543 -13.93764,-0.76805 -4.64868,-1.45721 -10.21802,-2.64947 -12.37631,-2.64947 -2.80361,0 -4.22845,-0.82257 -4.98979,-2.88062 -0.91201,-2.46542 -1.18806,-2.56151 -1.91518,-0.66667 -1.03918,2.70804 -7.05632,2.94047 -8.53368,0.32964 -0.58644,-1.03637 -2.85659,-2.08637 -5.04478,-2.33333 -3.76,-0.42435 -4.09094,-0.96091 -6.02557,-9.76901 -1.41336,-6.43488 -2.71564,-9.44876 -4.20684,-9.73594 -1.86867,-0.35986 -2.06549,0.7587 -1.46024,8.29882 0.91313,11.37581 -0.53631,13.33491 -8.91909,12.05527 -3.34202,-0.51016 -13.08299,-1.09652 -21.64659,-1.30301 -11.67608,-0.28155 -16.33545,-0.91147 -18.63001,-2.51863 -3.81596,-2.67281 -9.15219,-2.75175 -12.54496,-0.18558 -2.60187,1.96794 -11.40919,2.77694 -12.99268,1.19345 -0.46692,-0.46693 -20.20983,-0.98847 -43.87311,-1.15899 -42.98378,-0.30973 -43.02792,-0.30717 -47.03993,2.73763 -2.20868,1.6762 -6.56578,4.06289 -9.68245,5.30375 -5.52779,2.20081 -7.52921,4.63322 -3.81227,4.63322 3.17658,0 12.12599,4.66624 12.53064,6.5335 0.21177,0.97721 -0.55205,3.20694 -1.6974,4.95496 -1.26956,1.93758 -1.51004,3.17821 -0.61608,3.17821 0.80651,0 -0.37966,1.55333 -2.63592,3.45185 -4.97712,4.18798 -5.06738,5.34795 -0.7291,9.36854 3.17629,2.94369 3.32145,3.65312 2.48657,12.15289 -0.89333,9.09501 -2.35805,13.53591 -5.05937,15.33964 -2.76692,1.84752 -13.85952,1.10415 -16.0385,-1.07483 -2.62244,-2.62244 -2.52584,-4.05697 -2.09192,31.06455 0.0836,6.76645 0.71706,12.65186 1.40767,13.07869 0.69063,0.42683 1.25568,1.67604 1.25568,2.77604 0,1.1 -0.49989,1.69105 -1.11089,1.31344 -0.61099,-0.37761 -0.97635,2.93148 -0.81192,7.35353 0.22461,6.04068 0.95721,8.65338 2.94594,10.50616 1.95892,1.82502 3.03646,2.07658 4.14526,0.96778 1.10881,-1.10882 1.49828,-1.06192 1.49828,0.18041 0,0.92328 0.53201,1.34988 1.18225,0.94801 0.65024,-0.40188 1.87732,0.1068 2.72685,1.13044 1.02998,1.24104 6.11263,2.17247 15.2554,2.79564 7.54095,0.51399 15.46387,1.09715 17.60648,1.2959 2.14263,0.19874 8.39568,0.76528 13.89568,1.25897 5.5,0.49368 10.99795,1.19033 12.21765,1.54811 1.67946,0.49264 2.85358,-1.0612 4.83796,-6.40263 4.4538,-11.9884 4.63094,-14.57296 1.49267,-21.77984 -1.58228,-3.63364 -3.6246,-7.50663 -4.53848,-8.60663 -2.32443,-2.7978 -3.34296,-9.33333 -1.45456,-9.33333 2.07527,0 6.11143,4.89695 6.11143,7.41479 0,3.2659 4.12036,10.34133 5.2829,9.07174 1.84507,-2.01494 5.65914,-15.17906 4.94048,-17.05186 -0.47692,-1.24283 0.1036,-1.59186 1.87638,-1.12824 3.25769,0.8519 3.22918,3.35617 -0.14972,13.1515 -6.16916,17.88414 -9.77803,36.49587 -6.70884,34.59902 0.68266,-0.42192 1.59448,-0.19551 2.02625,0.50313 0.43179,0.69863 1.82324,1.23757 3.09213,1.19765 4.04743,-0.12733 19.44226,1.70778 20.6647,2.46328 0.95558,0.59059 18.26734,1.68578 27.84528,1.76156 1.22622,0.009 2.80396,1.74162 3.55858,3.90632 1.23639,3.54671 1.9029,3.88888 7.57487,3.88888 3.42057,0 6.56921,0.35 6.99699,0.77779 1.452,1.45198 8.10703,0.78648 8.88889,-0.8889 z m -21.22223,-10.6271 c -1.46666,-0.85031 -6.56666,-1.89563 -11.33333,-2.32296 l -8.66667,-0.77695 4.56864,-2.45908 c 3.57932,-1.92657 6.13604,-2.27486 11.80687,-1.60837 6.17859,0.72617 11.29227,2.36009 13.52716,4.32219 0.7678,0.67408 -4.22523,4.38698 -5.90267,4.38933 -0.73333,0.001 -2.53333,-0.69385 -4,-1.54416 z m 11.19872,-7.41725 c -1.95806,-1.37148 -5.80181,-2.19374 -10.25494,-2.19374 -6.13063,0 -6.79634,-0.23882 -4.77852,-1.71429 2.91478,-2.13133 11.20568,-2.20953 18.01338,-0.16989 5.81241,1.74144 6.22721,2.47769 2.65339,4.70957 -1.99308,1.24471 -3.13767,1.11636 -5.63331,-0.63165 z M 731.66665,400.57069 c -2.96884,-1.61063 -3.66667,-2.91709 -3.66667,-6.86471 v -4.87549 l 2.62156,2.81391 c 5.52,5.92502 12.04511,4.85132 12.04511,-1.98203 0,-2.26169 -2.33234,-5.69543 -7.20427,-10.60637 -10.54598,-10.63043 -11.22957,-20.4039 -1.79573,-25.67424 3.29392,-1.8402 4.03941,-1.84086 7.33333,-0.007 2.51641,1.40145 3.77987,3.28368 4.02751,6 0.30154,3.30761 0.1264,3.57455 -1.06626,1.62461 -1.63666,-2.67598 -7.97032,-3.12426 -10.36125,-0.73333 -3.04233,3.04233 -1.61143,7.16708 4.55228,13.12239 9.88164,9.54757 12.46116,18.92886 7.08428,25.76446 -3.15396,4.00962 -7.88125,4.50332 -13.56989,1.41719 z m 22.55556,1.20707 c -0.4889,-0.48888 -0.93952,-6.93888 -1.0014,-14.33334 -0.0619,-7.39444 -0.5393,-16.85616 -1.06091,-21.02604 -0.94991,-7.59376 0.0188,-13.08506 2.30845,-13.08506 1.3598,0 3.14564,14.14381 3.06704,24.29092 -0.0432,5.58316 0.23982,6.33553 1.8735,4.97969 1.05842,-0.87843 1.92442,-2.39639 1.92442,-3.37327 0,-2.38442 6.29739,-8.56401 8.72727,-8.56401 1.06667,0 1.9394,0.33944 1.9394,0.75432 0,1.49943 -2.92376,6.16944 -5.43425,8.67993 -1.41116,1.41116 -2.56575,3.21642 -2.56575,4.01168 0,0.79527 2.7,4.88262 6,9.08299 6.74036,8.57939 7.06479,9.47108 3.44599,9.47108 -1.58603,0 -4.74444,-3.01735 -8.33334,-7.96113 -3.17862,-4.37863 -6.17242,-7.97863 -6.65288,-8 -0.48046,-0.0213 -0.54713,3.56113 -0.14814,7.96113 0.5879,6.48363 0.35333,8 -1.23755,8 -1.07964,0 -2.36297,-0.4 -2.85185,-0.88889 z m 50.81164,-0.77778 c -1.67324,-1.30165 -2.28258,-5.0456 -2.78222,-17.09476 -0.66404,-16.01418 -0.11094,-22.5719 1.90379,-22.5719 0.64784,0 1.17789,2.40709 1.17789,5.34909 v 5.34909 l 5.10248,-0.81592 c 4.55575,-0.72849 5.4787,-0.36881 8.61362,3.35682 5.80045,6.89345 6.55065,19.97622 1.46758,25.59296 -2.65182,2.93022 -12.13232,3.44128 -15.48314,0.83462 z m 12.52781,-5.87332 c 5.63613,-5.10064 0.59733,-20.46001 -6.71212,-20.46001 -0.72916,0 -2.26879,0.94304 -3.4214,2.09564 -1.62483,1.62484 -1.92076,3.79656 -1.31723,9.66667 0.42812,4.16406 1.00948,8.32102 1.2919,9.23769 0.73941,2.39999 7.29526,2.05152 10.15885,-0.53999 z m 16.1884,6.49244 c -0.87079,-0.5537 -2.22079,-2.68357 -3,-4.73305 -1.71723,-4.51664 -1.89908,-24.88607 -0.22219,-24.88607 0.657,0 1.62546,4.95 2.15212,11 1.1143,12.80051 2.29128,15.66667 6.43356,15.66667 5.19802,0 6.21976,-2.45317 6.21976,-14.93333 0,-6.45334 0.55224,-11.73334 1.22722,-11.73334 0.67496,0 1.58513,4.05 2.0226,9 0.43746,4.95 1.05696,11.85 1.37664,15.33334 0.43644,4.75557 0.12626,6.33333 -1.24483,6.33333 -1.00435,0 -2.10107,-0.75 -2.43719,-1.66667 -0.48888,-1.33333 -0.96444,-1.33333 -2.37777,0 -1.95124,1.84079 -7.67913,2.19018 -10.14992,0.61912 z m 22.24952,-3.55245 c 3.1e-4,-2.02223 0.35596,-2.24444 1.6004,-1 2.37719,2.37719 8.63654,1.9774 9.6314,-0.61516 0.59762,-1.55739 -1.14166,-4.0558 -5.85735,-8.41388 -6.80525,-6.28916 -7.80812,-8.82285 -5.32714,-13.45861 2.13088,-3.98159 13.28642,-3.25618 13.28642,0.86397 0,1.39333 -0.78477,1.52597 -3.32176,0.56141 -8.45008,-3.21272 -9.80532,3.15618 -1.98892,9.34687 6.36323,5.03979 8.4634,8.53176 7.48152,12.43959 -0.63137,2.51277 -1.65564,2.87581 -8.11379,2.87581 -6.43926,0 -7.39114,-0.33485 -7.39078,-2.6 z m 35.66706,2.38363 c 0.91667,-0.36988 2.41667,-0.36988 3.33334,0 0.91666,0.36988 0.16666,0.67252 -1.66667,0.67252 -1.83333,0 -2.58333,-0.30264 -1.66667,-0.67252 z m 15.33334,-10.66667 c -0.91667,-0.36988 -1.66667,-1.26424 -1.66667,-1.98747 0,-1.87616 5.68092,-0.79746 6.34001,1.20384 0.55198,1.67608 -1.57693,2.03306 -4.67334,0.78363 z m 23.86549,-29.25539 c -0.99064,-1.12036 -1.46652,-2.37165 -1.05751,-2.78066 1.32151,-1.32152 4.85868,0.77316 4.85868,2.87725 0,2.57145 -1.47516,2.53397 -3.80117,-0.0965 z m -19.11549,-10.77238 c 0.96249,-0.38516 2.1125,-0.3378 2.55556,0.1052 0.44305,0.44305 -0.34446,0.75818 -1.75,0.70029 -1.55327,-0.064 -1.8692,-0.37992 -0.80556,-0.80554 z m -112.5504,-5.44293 c -4.91812,-3.28392 -5.46935,-20.66074 -0.82412,-25.97959 3.03023,-3.46965 15.68388,-3.2928 17.57761,0.24568 3.2495,6.07173 0.5825,22.99361 -4.01142,25.45221 -1.7879,0.95684 -2.60834,0.96178 -2.60834,0.0157 0,-0.75913 -0.9,-1.38024 -2,-1.38024 -1.1,0 -2,0.6 -2,1.33334 0,1.5454 -3.98356,1.74862 -6.13373,0.31292 z m -37.04625,-3.59935 c -3.75002,-5.72324 -2.26552,-22.11961 2.2634,-24.99936 0.87078,-0.55369 4.41942,-1.01591 7.88585,-1.02713 8.83892,-0.0287 11.0492,3.43882 9.91745,15.55844 -1.04866,11.22986 -3.17905,13.75448 -11.60669,13.75448 -5.2318,0 -6.67367,-0.56012 -8.46001,-3.28643 z m 125.27261,-6.66783 c 2.0089,-3.06597 1.98066,-3.53782 -0.41896,-7 -1.41519,-2.04182 -2.95187,-4.76241 -3.41486,-6.04574 -0.46298,-1.28334 -1.79602,-2.33334 -2.96232,-2.33334 -1.16629,0 -1.75396,0.59314 -1.30593,1.31807 0.47123,0.76245 -0.0785,0.97531 -1.30431,0.50495 -1.1654,-0.4472 -3.26042,0.21996 -4.65561,1.48258 -2.49753,2.26024 -2.73816,6.46687 -0.66895,11.6944 0.69403,1.75334 0.25931,2.33334 -1.74884,2.33334 -2.23529,0 -2.90862,-1.36315 -4.11634,-8.33334 -0.79416,-4.58333 -1.84427,-13.58333 -2.33358,-20 l -0.88966,-11.66666 h 3.53002 c 1.94152,0 3.53004,0.6 3.53004,1.33333 0,0.73333 0.96419,1.33333 2.14266,1.33333 1.39506,0 1.86366,-0.72704 1.34304,-2.08376 -0.63811,-1.66286 0.0465,-1.9995 3.38985,-1.66666 6.00203,0.59754 11.29052,7.74773 12.48004,16.87334 0.89651,6.87776 0.8348,7.0728 -1.79257,5.66667 -5.27835,-2.82488 -5.67727,-1.39961 -0.99188,3.54375 3.89514,4.1096 4.74113,6.0091 4.75064,10.66666 0.0107,5.17242 -0.28186,5.66667 -3.35251,5.66667 -3.2694,0 -3.30345,-0.0925 -1.20997,-3.28759 z m 9.20672,1.62092 c -1.26272,-3.41109 -2.75302,-22.33333 -1.75896,-22.33333 1.7063,0 3.98609,5.27547 2.98193,6.90024 -0.57281,0.92681 -0.33872,1.14367 0.605,0.56041 0.90225,-0.55761 1.53935,-0.1236 1.53935,1.04864 0,1.1 -0.6,2.37082 -1.33334,2.82404 -1.69126,1.04527 -1.67236,3.43304 0.0475,6 1.1466,1.71135 1.70825,1.5614 3.89152,-1.03896 2.26031,-2.69212 2.68987,-2.79174 3.76372,-0.87289 0.66671,1.19135 0.93639,3.60888 0.59929,5.37229 -0.50476,2.64048 -1.41632,3.20623 -5.16598,3.20623 -2.5042,0 -4.83072,-0.75 -5.17004,-1.66667 z m -0.80276,-39.33333 c -1.6585,-2.11475 -1.61134,-2.16191 0.50341,-0.50341 2.221,1.74182 2.92731,2.83674 1.82992,2.83674 -0.27687,0 -1.32687,-1.05 -2.33333,-2.33333 z M 511.63888,429.86109 c -0.44305,-0.44306 -1.59307,-0.49042 -2.55556,-0.1052 -1.06364,0.42562 -0.74771,0.74157 0.80556,0.80554 1.40555,0.0579 2.19305,-0.25724 1.75,-0.70029 z m -26.57264,-4.63304 c 1.46005,-0.0677 1.65783,-0.34999 0.55559,-0.79272 -1.98652,-0.79792 -5.64063,1.861 -5.5813,4.06124 0.0223,0.82688 0.65211,0.45341 1.39959,-0.82992 0.74747,-1.28333 2.37923,-2.38071 3.62612,-2.4386 z m 19.90597,3.2997 c -0.44305,-0.44305 -1.59306,-0.49041 -2.55556,-0.10519 -1.06364,0.42562 -0.7477,0.74157 0.80556,0.80554 1.40555,0.0579 2.19306,-0.25724 1.75,-0.70029 z m 390.30785,-5.52777 c 0.85116,-2.8384 0.55362,-2.9885 -5.52356,-2.78661 -4.8599,0.16144 -5.36852,0.34427 -2.08986,0.75115 4.57614,0.56789 5.28126,1.55421 2.84951,3.98596 -0.81609,0.81609 -1.04511,2.19368 -0.50889,3.06128 1.22358,1.97981 3.95465,-0.61604 5.2728,-5.01178 z m -396.28007,4.11696 c -0.91667,-0.36988 -2.41667,-0.36988 -3.33334,0 -0.91666,0.36988 -0.16666,0.67252 1.66667,0.67252 1.83333,0 2.58333,-0.30264 1.66667,-0.67252 z m -6.66667,-1.33333 c -0.91667,-0.36988 -2.41667,-0.36988 -3.33333,0 -0.91667,0.36988 -0.16667,0.67252 1.66666,0.67252 1.83334,0 2.58334,-0.30264 1.66667,-0.67252 z m 171.79252,-3.35212 c 1.06584,-1.99155 1.06782,-2.50257 0.007,-1.84705 -0.80649,0.49844 -1.50853,0.1208 -1.56008,-0.8391 -0.1096,-2.04097 -2.34102,2.75931 -2.47922,5.33334 -0.1244,2.31638 2.18829,0.79806 4.03213,-2.64719 z m -203.15362,-3.23707 c -0.44306,-0.44305 -1.59307,-0.49041 -2.55556,-0.1052 -1.06364,0.42563 -0.74771,0.74158 0.80556,0.80555 1.40554,0.0579 2.19305,-0.25724 1.75,-0.70029 z m -5.33334,-1.33333 c -0.44305,-0.44305 -1.59306,-0.49041 -2.55556,-0.1052 -1.06364,0.42563 -0.7477,0.74157 0.80556,0.80555 1.40555,0.0579 2.19306,-0.25724 1.75,-0.7003 z m -6.66666,-1.33333 c -0.44306,-0.44306 -1.59307,-0.49042 -2.55556,-0.1052 -1.06364,0.42562 -0.74771,0.74157 0.80556,0.80554 1.40554,0.0579 2.19305,-0.25724 1.75,-0.70029 z m -5.33334,-1.33334 c -0.44305,-0.44305 -1.59306,-0.49041 -2.55556,-0.1052 -1.06364,0.42563 -0.7477,0.74158 0.80556,0.80555 1.40555,0.0579 2.19306,-0.25724 1.75,-0.70029 z m -6.41666,-1.01756 c -0.30556,-0.26938 -2.95556,-0.85522 -5.8889,-1.30188 -3.71706,-0.56598 -4.5252,-0.44596 -2.66666,0.39607 2.55961,1.15967 9.70113,1.91577 8.55556,0.90581 z m -12.25,-2.98244 c -0.44306,-0.44305 -1.59307,-0.49041 -2.55556,-0.1052 -1.06364,0.42563 -0.74771,0.74158 0.80556,0.80555 1.40554,0.0579 2.19305,-0.25724 1.75,-0.70029 z m -6.66667,-1.33333 c -0.44305,-0.44305 -1.59307,-0.49041 -2.55556,-0.1052 -1.06364,0.42563 -0.74771,0.74157 0.80556,0.80555 1.40555,0.0579 2.19305,-0.25724 1.75,-0.7003 z m -5.94685,-1.40236 c -0.90271,-0.36523 -2.70271,-0.38745 -4,-0.0495 -1.2973,0.33806 -0.55871,0.63688 1.64129,0.66406 2.2,0.0272 3.26141,-0.24942 2.35871,-0.61466 z m 266.30795,-0.19208 c 0,-1.73599 -3.04867,-4.26667 -5.13999,-4.26667 -1.53998,0 -1.44238,0.54983 0.47332,2.66667 2.47894,2.73919 4.66667,3.48927 4.66667,1.6 z m -274.33333,-1.14971 c -0.91666,-0.36988 -2.41666,-0.36988 -3.33333,0 -0.91667,0.36988 -0.16667,0.67252 1.66667,0.67252 1.83333,0 2.58333,-0.30264 1.66666,-0.67252 z m -12.69444,-2.58918 c -0.44305,-0.44306 -1.59306,-0.49042 -2.55556,-0.1052 -1.06364,0.42562 -0.7477,0.74157 0.80556,0.80554 1.40555,0.0579 2.19306,-0.25724 1.75,-0.70029 z m -5.33333,-1.33334 c -0.44305,-0.44305 -1.59307,-0.49041 -2.55556,-0.1052 -1.06364,0.42563 -0.74771,0.74158 0.80556,0.80555 1.40555,0.0579 2.19305,-0.25724 1.75,-0.70029 z m 168.16601,-2.63205 c 1.36821,-3.00288 1.18451,-3.75605 -1.45264,-5.95564 l -3.01893,-2.51803 7.08985,-0.0444 c 6.49199,-0.0407 7.01848,0.18051 6.24348,2.62231 -1.04263,3.28504 0.40749,8.31756 2.096,7.274 0.68053,-0.42059 1.23733,-0.009 1.23733,0.91397 0,1.30566 0.35556,1.32314 1.6,0.0787 0.88,-0.88 3.4237,-1.6 5.65266,-1.6 5.17738,0 15.59229,-4.23221 14.90266,-6.05585 -0.28893,-0.76406 0.26671,-2.47238 1.23476,-3.79627 0.96806,-1.32389 1.39935,-3.34719 0.95843,-4.4962 -0.47956,-1.24969 -0.24903,-1.74757 0.57372,-1.23909 0.87461,0.54054 1.34609,-1.44307 1.29491,-5.44794 -0.0443,-3.46389 0.37358,-12.09868 0.92858,-19.18841 0.9116,-11.64526 0.77622,-13.02972 -1.40165,-14.33236 -2.24548,-1.34308 -2.25737,-1.56149 -0.17347,-3.1863 4.06374,-3.1685 0.74176,-5.45564 -7.37776,-5.07954 -6.57294,0.30447 -7.57558,-0.014 -9.55454,-3.03421 -1.4363,-2.19207 -2.05226,-5.35301 -1.75798,-9.02145 l 0.45302,-5.64699 -7.33334,-1.62544 c -4.03333,-0.894 -11.23333,-2.49264 -16,-3.55255 -9.83797,-2.18754 -11.26221,-1.90149 -9.25028,1.85786 1.78708,3.33918 0.33883,16.72668 -2.25497,20.84481 -1.48804,2.36253 -3.12327,3 -7.69556,3 -7.93393,0 -9.53684,-2.27637 -9.18179,-13.0396 0.3043,-9.22481 2.87142,-14.93271 6.74667,-15.00095 4.28868,-0.0755 -1.16601,-2.15166 -10.15075,-3.86356 -7.51277,-1.43142 -8.63376,-1.36393 -10.0747,0.6067 -2.31172,3.16145 -8.02632,2.0861 -8.55247,-1.60938 -0.3306,-2.32204 -1.80581,-3.20546 -7.33333,-4.39157 -23.76331,-5.09919 -90.51548,-18.70164 -91.77575,-18.70164 -0.83402,0 -2.18256,0.85604 -2.99674,1.90231 -1.01063,1.29872 -5.49931,2.14408 -14.14699,2.66432 -6.96667,0.4191 -18.96667,1.34286 -26.66667,2.0528 -7.7,0.70992 -19.16908,1.31097 -25.48685,1.33566 -13.81474,0.054 -17.16473,-1.9076 -22.02461,-12.89668 -3.63335,-8.21562 -4.03716,-13.47033 -1.12117,-14.5893 1.29816,-0.49815 1.60221,-1.32717 0.84044,-2.29148 -0.65648,-0.83103 -1.91834,-3.76096 -2.80411,-6.51096 -0.88577,-2.75 -2.01397,-4.9962 -2.50709,-4.99157 -0.49314,0.004 -1.9187,1.80464 -3.16792,4 -2.79366,4.9095 -7.19215,5.21489 -11.38579,0.79053 -2.61151,-2.75517 -2.73823,-3.36429 -1,-4.80689 2.20704,-1.83168 2.66272,-6.08587 0.77673,-7.25147 -2.71388,-1.67727 -83.39685,-18.24715 -83.765,-17.20284 -1.79838,5.10135 -5.68796,5.42507 -5.68796,0.4734 0,-2.64883 -1.46491,-3.34376 -9.99999,-4.74385 -2.93334,-0.48119 -11.03334,-2.25148 -18,-3.93398 -6.96667,-1.68249 -14.91667,-3.44798 -17.66667,-3.92329 l -5,-0.86421 v 8.54585 8.54585 l 6.33333,0.88643 C 159.15,233.0115 177.3,235.18027 196,237.34344 c 18.69999,2.16319 41.49999,4.83398 50.66666,5.93507 9.16667,1.10111 19.18125,2.01389 22.25464,2.02841 6.81327,0.0321 7.88563,1.46706 5.16788,6.9149 -1.14905,2.30333 -2.08919,5.56028 -2.08919,7.23766 0,1.67739 -0.51913,3.37064 -1.15362,3.76278 -0.6345,0.39213 -1.4977,2.83325 -1.91823,5.42469 -0.42053,2.59144 -2.0014,6.44862 -3.51304,8.57153 -1.51164,2.12291 -2.74844,4.8172 -2.74844,5.98733 0,1.17014 -0.76913,2.12751 -1.70919,2.12751 -0.94005,0 -1.8366,1.5394 -1.9923,3.42088 -0.15572,1.88149 -1.21606,4.35381 -2.3563,5.49405 -1.14024,1.14024 -2.4187,3.80084 -2.84102,5.91246 -0.43154,2.15765 -1.63335,3.83928 -2.74384,3.83928 -1.26932,0 -1.68115,0.76834 -1.15155,2.14845 0.57176,1.48997 0.24677,1.92679 -1.06032,1.4252 -2.73343,-1.04891 -3.72083,0.52396 -1.80057,2.86823 1.40538,1.7157 1.21753,1.90786 -1.24515,1.27358 -1.99024,-0.5126 -2.69871,-0.22177 -2.25792,0.92688 0.35419,0.92303 -0.64788,2.01126 -2.23392,2.42602 -1.67653,0.43842 -2.49269,1.37273 -1.95671,2.23997 0.6374,1.03132 1.42858,1.06535 2.5786,0.11093 1.18668,-0.98485 1.65908,-0.85384 1.65908,0.46012 0,1.10138 -1.17465,1.7081 -2.93324,1.51506 -2.15344,-0.2364 -2.77964,0.26532 -2.35549,1.88725 0.37073,1.41769 -0.67093,2.77817 -2.90729,3.79712 -4.42794,2.01748 -4.69287,1.99657 -4.69287,-0.37031 0,-1.12357 -0.78961,-1.65514 -1.85265,-1.24721 -1.07112,0.41103 -1.56799,1.79952 -1.17783,3.29148 0.38672,1.47883 8.3e-4,2.58056 -0.90387,2.58056 -0.97192,0 -1.25338,1.02493 -0.73232,2.66667 0.48552,1.52974 0.2396,2.66666 -0.57681,2.66666 -0.78276,0 -1.42319,-1.5 -1.42319,-3.33333 0,-1.83333 -0.75,-3.35241 -1.66666,-3.37573 -1.00464,-0.0256 -0.72427,-0.75736 0.70585,-1.84232 2.05079,-1.55582 2.09599,-1.90602 0.33333,-2.58242 -1.12458,-0.43154 -2.0864,-0.0537 -2.14445,0.84231 -0.082,1.26479 -0.25043,1.26707 -0.76041,0.0107 -0.42258,-1.0414 -2.1155,-1.32251 -4.76872,-0.79187 -2.33444,0.46689 -3.79091,0.3002 -3.36754,-0.38541 0.41032,-0.66448 -0.7658,-1.29899 -2.61361,-1.41003 -3.94439,-0.23703 -6.80196,-2.74205 -7.38144,-6.47081 -0.75636,-4.8668 -2.39543,-5.99364 -8.74837,-6.01438 -4.5298,-0.0152 -5.70309,-0.37728 -4.25464,-1.31334 1.1,-0.71088 3.95,-1.3017 6.33333,-1.31292 6.58357,-0.0311 5.17439,-2.41038 -2,-3.37692 -8.29524,-1.11755 -9.83145,-1.70464 -5.33333,-2.03823 2.01667,-0.14956 4.26667,-0.42193 5,-0.60527 0.73333,-0.18333 2.23333,-0.40833 3.33333,-0.5 1.1,-0.0916 2,-0.76666 2,-1.5 0,-0.73333 -3.15,-1.40426 -7,-1.49096 l -7,-0.15761 L 191,295.69812 c 6.90994,-1.44012 8.52049,-3.68596 2.66666,-3.71855 -4.91221,-0.0273 -9.10502,-2.5878 -4.33333,-2.64625 6.45528,-0.0791 7.17572,-2.23897 1.10828,-3.32265 l -5.77495,-1.03143 5.2467,-1.58564 c 4.03582,-1.21971 4.70301,-1.79428 2.89094,-2.48963 -1.29565,-0.4972 -3.65666,-0.96524 -5.24669,-1.0401 -2.19929,-0.1036 -1.85421,-0.4687 1.44239,-1.52622 5.2978,-1.69948 5.57157,-3.33162 0.66666,-3.97432 L 186,273.88291 l 3.73973,-1.85544 3.73975,-1.85544 -3.07308,-1.70544 c -2.24287,-1.24471 -2.48126,-1.7182 -0.88239,-1.75268 2.45257,-0.0529 4.70481,-4.41543 2.63563,-5.10515 -0.72947,-0.24316 -0.16382,-1.60461 1.25702,-3.02544 2.92899,-2.92898 3.40616,-5.54012 0.91667,-5.01604 -0.91667,0.19299 -3.16667,-0.62756 -5,-1.8234 -3.15281,-2.05653 -13.93331,-4.33386 -28.54904,-6.03089 -5.70003,-0.66183 -6.44007,-0.47644 -5.70851,1.42997 0.60331,1.57219 0.10347,2.19036 -1.77124,2.19036 -2.5496,0 -2.59302,0.88039 -1.82485,37 0.72083,33.89373 1.00689,37.31319 3.40733,40.73044 1.47694,2.10255 2.43699,5.30267 2.20004,7.33333 -0.39677,3.4004 0.1791,3.80904 10.24627,7.27096 8.52787,2.93256 12.00341,3.4971 17.33333,2.81539 3.66667,-0.46897 7.86667,-0.99303 9.33334,-1.16456 4.30736,-0.50379 4.37869,-0.55265 4.18518,-2.86667 -0.20316,-2.42932 9.68853,-5.71294 17.35104,-5.75984 3.52527,-0.0216 4.43891,0.65128 5.66667,4.17324 1.83833,5.27344 1.85285,5.13438 -0.53623,5.13438 -1.1,0 -2,0.4918 -2,1.09288 0,1.86505 6.56252,6.90634 9.01015,6.92154 1.27774,0.008 5.26854,0.90795 8.86842,2 3.59988,1.09207 8.56872,1.98557 11.04186,1.98557 2.74229,0 4.79236,0.77076 5.2547,1.97559 0.57391,1.49559 1.37362,1.64616 3.29148,0.61975 1.7306,-0.92619 2.53339,-0.91846 2.53339,0.0244 0,0.75913 -0.63541,1.38024 -1.41203,1.38024 -0.77661,0 -1.03514,0.60978 -0.57453,1.35508 0.46061,0.74529 1.46311,0.96842 2.22776,0.49585 0.76465,-0.47259 1.78597,-0.21899 2.2696,0.56355 0.48364,0.78252 2.36655,1.75248 4.18427,2.15545 1.8177,0.40296 5.70493,1.26281 8.63826,1.91077 2.93334,0.64796 6.92164,1.81658 8.86291,2.59691 1.94125,0.78035 3.87676,1.07161 4.30111,0.64727 0.42434,-0.42436 1.74501,0.0364 2.9348,1.0238 1.38849,1.15234 5.88638,1.8173 12.5588,1.85666 5.71754,0.0337 9.8614,0.39499 9.20854,0.80282 -0.65284,0.40781 4.44251,1.60828 11.32299,2.66768 l 12.50997,1.9262 -2.56752,-6.51383 c -1.41212,-3.58261 -2.31286,-7.18307 -2.00165,-8.00103 0.31122,-0.81794 1.17421,0.0133 1.91774,1.84615 1.17379,2.89421 1.4761,3.02595 2.29475,1 0.51857,-1.28333 1.47867,-2.33333 2.13355,-2.33333 0.65486,0 1.20976,1.05 1.23308,2.33333 0.0391,2.14695 0.19366,2.13359 1.93594,-0.16724 2.21711,-2.92787 5.98208,-2.02844 6.10618,1.45873 0.0649,1.82596 0.37066,1.66168 1.32205,-0.71048 1.34067,-3.3428 3.87449,-2.81786 4.01128,0.83102 0.0612,1.63357 0.41668,1.42825 1.29036,-0.74536 0.66323,-1.65 2.03351,-3 3.04507,-3 1.01157,0 2.49029,1.35 3.28606,3 l 1.44684,3 0.0903,-3 c 0.0496,-1.65 0.59855,-3 1.21983,-3 0.62126,0 1.78065,1.35 2.57642,3 l 1.44684,3 0.0903,-3 c 0.0496,-1.64998 0.69019,-2.99998 1.42352,-2.99998 1.48123,0 1.5094,3.92148 0.0719,10 l -0.946,4 -1.89574,-3.9274 -1.89572,-3.92738 -0.78901,3.92738 -0.78903,3.9274 -2.78398,-6 c -2.42631,-5.22914 -2.82218,-5.57174 -3.08126,-2.66666 -0.16349,1.83333 -0.36353,4.04098 -0.44452,4.90589 -0.29234,3.12209 -2.23608,3.57905 -2.98829,0.70255 -0.42316,-1.61798 -1.36355,-2.94178 -2.08981,-2.94178 -0.72627,0 -0.99763,0.84135 -0.60303,1.86964 0.3946,1.02831 0.30879,2.28002 -0.19068,2.78156 -0.49948,0.50156 -2.22131,-1.98978 -3.82631,-5.5363 l -2.91817,-6.44823 -0.0819,5.44444 c -0.10413,6.93156 -1.46982,8.30736 -3.56057,3.58704 l -1.638,-3.69815 -0.10827,3.64127 c -0.0815,2.73756 0.63626,3.80512 2.89171,4.30148 12.28935,2.70459 24.11919,4.71584 24.64499,4.19004 0.34606,-0.34605 2.01294,-0.10307 3.70417,0.53989 1.69123,0.64302 6.57953,1.5715 10.86289,2.0633 4.28338,0.49181 8.14402,1.10476 8.57919,1.36212 1.47112,0.86997 41.63241,5.9227 42.24076,5.31434 0.33184,-0.33184 2.78539,0.21315 5.45233,1.21108 2.66695,0.99794 10.549,2.21036 17.51567,2.6943 23.75066,1.6498 27.3352,1.93574 34.35133,2.74038 3.85991,0.44267 6.67449,1.36067 6.25465,2.03999 -0.41985,0.67933 -0.128,1.23515 0.64866,1.23515 0.77661,0 1.41202,-0.6 1.41202,-1.33334 0,-1.92541 3.6735,-1.64318 4.33874,0.33334 0.44694,1.32797 0.96862,1.33032 2.56712,0.012 1.10338,-0.91031 2.49656,-1.21031 3.09593,-0.66667 0.59936,0.54363 0.61984,-0.21157 0.0455,-1.67824 -0.57435,-1.46667 -1.3469,-13.50517 -1.71678,-26.75223 l -0.67249,-24.08555 4.82697,0.56352 c 2.65483,0.30993 4.47863,1.12714 4.05288,1.81602 -0.42574,0.68888 -2.07093,1.0738 -3.65597,0.85538 -2.80404,-0.3864 -2.87627,-0.0263 -2.67428,13.33351 0.24277,16.05651 2.39428,29.91351 5.34336,34.41436 1.95393,2.98208 5.57716,4.75902 3.78237,1.85499 -0.45322,-0.73333 0.0925,-1.33333 1.2128,-1.33333 1.26274,0 1.74516,0.7601 1.26938,2 -0.8863,2.30962 1.57306,2.73466 2.94828,0.50953 0.60728,-0.9826 3.01929,-1.1676 7.07868,-0.54293 3.38664,0.52114 9.37678,1.1611 13.31144,1.42214 3.93464,0.26104 7.48464,0.80536 7.88888,1.2096 1.66726,1.66727 3.95713,0.5273 5.42878,-2.70262 z m 2.41732,-10.78461 c -0.48889,-0.48888 -0.88889,-11.60772 -0.88889,-24.70851 0,-20.50344 -0.294,-23.93244 -2.1118,-24.63 -3.1413,-1.20542 0.22089,-2.84273 4.25424,-2.0717 3.10438,0.59344 3.17102,0.77776 1.10617,3.05938 -1.94628,2.15063 -2.08736,5.101 -1.2352,25.83381 0.52911,12.87326 0.69255,23.40591 0.36319,23.40591 -0.32935,0 -0.99883,-0.4 -1.48771,-0.88889 z m -165.6076,-10.80307 c 0.53362,-3.15843 0.14622,-6.69679 -1.04281,-9.52465 -1.69453,-4.0301 -2.03468,-4.24411 -3.26145,-2.05199 -1.0069,1.79923 -0.82842,3.27337 0.67396,5.56627 2.51018,3.83102 1.07632,5.83876 -1.62236,2.27166 -1.76506,-2.33304 -1.94772,-2.35474 -1.98623,-0.236 -0.0631,3.47438 -2.70716,2.82648 -2.72065,-0.66666 -0.007,-1.65 -0.40108,-6.24394 -0.87712,-10.20875 -0.63632,-5.29984 -0.45672,-6.95611 0.67826,-6.25465 0.84907,0.52476 1.58439,3.4687 1.63402,6.54209 0.0807,4.99845 0.24288,5.27148 1.53708,2.58797 0.79577,-1.65 2.46348,-3 3.70601,-3 1.24253,0 2.91024,1.35 3.70601,3 1.09823,2.27716 1.46859,2.45676 1.53708,0.74536 0.0496,-1.24005 0.73662,-2.65413 1.52663,-3.14238 1.37244,-0.84822 0.99877,5.26565 -0.96144,15.73036 -1.077,5.74965 -3.50719,4.44308 -2.52699,-1.35863 z m 37.42396,-2.45993 c -2.72473,-2.72474 -2.68966,-11.0153 0.0511,-12.067 1.14929,-0.44103 2.76929,-0.12214 3.6,0.70852 1.12495,1.12494 0.95203,1.51037 -0.6776,1.51037 -1.20339,0 -2.56212,0.60537 -3.0194,1.34527 -1.25808,2.03561 0.60575,6.65473 2.6852,6.65473 2.66516,0 3.63977,2.25949 1.35311,3.13697 -1.07458,0.41235 -2.87112,-0.16764 -3.99235,-1.28886 z m 8.0867,-0.37635 c -2.48266,-2.74329 -2.79275,-8.27096 -0.58768,-10.47603 2.15017,-2.15017 5.95638,0.13998 6.9745,4.19648 1.60818,6.40746 -2.56121,10.50682 -6.38682,6.27955 z m 4.29661,-5.0356 c -0.48045,-4.05852 -3.03521,-5.56899 -4.21577,-2.49251 -1.08748,2.83392 0.34474,6.05635 2.69176,6.05635 1.32554,0 1.81141,-1.13617 1.52401,-3.56384 z m 3.53672,6.16355 c -1.26695,-2.04998 0.46847,-3.37263 2.17979,-1.66131 0.95757,0.95757 0.98057,1.70336 0.0699,2.26619 -0.74656,0.4614 -1.75892,0.1892 -2.24969,-0.60488 z m 4.71052,-1.26178 c -1.72836,-3.22946 -1.73008,-10.67126 -0.002,-10.67126 0.73334,0 1.33334,2.06458 1.33334,4.58797 0,2.52339 0.6,4.9588 1.33333,5.41203 0.80524,0.49766 1.33333,-1.3195 1.33333,-4.58798 0,-2.97661 0.6,-5.41202 1.33334,-5.41202 0.73333,0 1.33333,2.87232 1.33333,6.38293 0,5.42511 -0.39979,6.41304 -2.6642,6.58361 -1.46532,0.1104 -3.26532,-0.92249 -4,-2.29528 z m 8.9884,-0.004 c -0.52495,-1.83333 -0.89304,-6.63333 -0.81799,-10.66666 0.0751,-4.03334 0.39022,-6.13334 0.70038,-4.66667 2.06942,9.78609 1.74333,9.23383 3.8364,6.49719 1.75577,-2.29564 1.84717,-2.16051 1.13248,1.67444 -0.45271,2.42909 -0.1644,4.55052 0.69021,5.07869 0.80721,0.49888 1.4543,1.92165 1.438,3.16171 -0.0232,1.76997 -0.5691,1.55272 -2.53916,-1.01064 l -2.50952,-3.26528 -0.48817,3.26528 -0.48818,3.26528 z m -87.65753,-0.69996 c 0,-0.916 1.42572,-1.4441 3.33333,-1.23469 3.76561,0.41336 4.29648,-0.94008 1.33333,-3.39928 -2.96136,-2.45772 -2.54046,-6.66667 0.66667,-6.66667 1.46667,0 2.66667,0.6 2.66667,1.33334 0,0.73333 -0.63403,1.33333 -1.40894,1.33333 -0.78973,0 -0.49673,1.30236 0.66667,2.96335 3.59024,5.1258 2.71331,7.64609 -2.59107,7.44668 -2.64429,-0.0995 -4.66666,-0.8691 -4.66666,-1.77606 z m 27.6118,1.20006 c -0.51983,-0.51983 -0.85524,-5.19514 -0.74536,-10.38959 0.10986,-5.19444 0.43713,-7.92499 0.72724,-6.06787 0.29078,1.86146 1.84642,3.95547 3.46689,4.66667 2.32543,1.02061 2.93943,2.40415 2.93943,6.62343 0,4.35304 -0.50023,5.40493 -2.72154,5.7229 -1.49684,0.21427 -3.14684,-0.0357 -3.66666,-0.55554 z m 4.72674,-3.5007 c 0.77203,-2.29453 -0.3933,-6.33333 -1.82738,-6.33333 -0.6478,0 -1.17783,1.8 -1.17783,4 0,3.98889 1.94109,5.49601 3.00521,2.33333 z m 4.24942,1.16111 c -0.4379,-1.74472 -0.55579,-4.89472 -0.26196,-7 0.48294,-3.46048 0.63722,-3.28403 1.60785,1.83889 1.3276,7.00708 3.36707,7.39631 3.4932,0.66667 0.0752,-4.01093 0.32039,-4.47249 1.23961,-2.33333 0.63026,1.46666 1.18808,4.31666 1.23962,6.33333 0.0777,3.03989 -0.47174,3.66667 -3.21422,3.66667 -2.37166,0 -3.53328,-0.89786 -4.1041,-3.17223 z m 8.74537,1.83889 c 0,-0.73333 0.94355,-1.33333 2.09677,-1.33333 1.75283,0 1.6557,-0.56075 -0.59216,-3.41843 -1.47892,-1.88014 -2.35828,-4.28014 -1.95412,-5.33333 0.8291,-2.16059 4.44951,-2.63379 4.44951,-0.58157 0,0.73333 -0.63403,1.33333 -1.40893,1.33333 -0.78974,0 -0.49674,1.30236 0.66666,2.96335 2.92579,4.17714 2.65524,7.70332 -0.59106,7.70332 -1.46667,0 -2.66667,-0.6 -2.66667,-1.33334 z m 6.66667,0 c 0,-0.73333 0.6,-1.33333 1.33333,-1.33333 0.73333,0 1.33333,0.6 1.33333,1.33333 0,0.73334 -0.6,1.33334 -1.33333,1.33334 -0.73333,0 -1.33333,-0.6 -1.33333,-1.33334 z m -121.33333,-6 c -1.35124,-1.62814 -1.28416,-2 0.36076,-2 1.11133,0 2.36596,0.9 2.78808,2 0.4221,1.1 0.25976,2 -0.36076,2 -0.62052,0 -1.87516,-0.9 -2.78808,-2 z m -8.25,-0.24414 c 0.96249,-0.38516 2.11249,-0.3378 2.55556,0.1052 0.44305,0.44305 -0.34446,0.75818 -1.75,0.70029 -1.55327,-0.064 -1.8692,-0.37992 -0.80556,-0.80555 z m 19.18333,-14.02252 c -0.9718,-0.9718 -1.6,-5.69623 -1.6,-12.033 0,-10.08121 0.12013,-10.47868 3.56327,-11.78775 4.68076,-1.77962 7.1034,-0.71818 7.1034,3.11224 0,3.74583 -2.30756,6.30851 -5.6805,6.30851 -2.0502,0 -2.40869,0.86541 -2.06666,4.98891 0.28921,3.4866 1.11646,5.12206 2.74716,5.4311 1.61413,0.30589 2.33333,-0.40989 2.33333,-2.32225 0,-1.52043 -0.6,-2.76443 -1.33333,-2.76443 -0.73334,0 -1.33334,-0.9 -1.33334,-2 0,-1.1111 1.18519,-2 2.66667,-2 2.25323,0 2.66667,0.8889 2.66667,5.73334 0,6.00717 -1.74696,8.93333 -5.33334,8.93333 -1.17333,0 -2.85333,-0.72 -3.73333,-1.6 z m 258.73333,0.63968 c -0.91667,-0.32738 -1.59707,-2.19524 -1.512,-4.15079 0.12173,-2.79784 0.29665,-2.98726 0.8209,-0.88889 0.36644,1.46666 1.32947,3.08404 2.14006,3.59417 1.85597,1.168 0.77988,2.24152 -1.44896,1.44551 z m -234.16313,-2.41028 c -1.48204,-3.86212 -0.89243,-13.91541 1.09509,-18.67223 1.48872,-3.56298 2.71235,-4.62384 5.33333,-4.62384 2.93568,0 3.40138,0.58254 3.40138,4.25484 0,3.90707 -0.14772,4.05283 -1.80719,1.78336 -1.13581,-1.55332 -2.64672,-2.14932 -4.06703,-1.6043 -1.82837,0.70162 -2.18338,2.31388 -1.85946,8.44464 0.41165,7.79135 3.21945,11.37587 4.64394,5.92861 1.15715,-4.42492 3.3035,-3.27185 2.84088,1.52618 -0.36341,3.76911 -0.95988,4.38608 -4.58094,4.73846 -2.88855,0.28108 -4.41936,-0.26258 -5,-1.77572 z m 12.6337,-8.90751 c 0.0879,-6.01961 0.45723,-11.71961 0.82064,-12.66666 0.36342,-0.94704 2.67335,-1.7219 5.13318,-1.7219 h 4.47241 l -0.046,10.33334 c -0.0628,14.07557 -0.42955,14.99999 -5.95191,14.99999 h -4.58814 l 0.15989,-10.94477 z m 7.86276,2.94478 c 0,-1.77778 -0.88889,-2.66667 -2.66666,-2.66667 -1.77778,0 -2.66667,0.88889 -2.66667,2.66667 0,1.77777 0.88889,2.66666 2.66667,2.66666 1.77777,0 2.66666,-0.88889 2.66666,-2.66666 z m 0,-7.89095 c 0,-0.67336 0.36419,-2.17336 0.80932,-3.33333 0.58019,-1.51194 0.0139,-2.10906 -2,-2.10906 -2.10772,0 -2.80932,0.83247 -2.80932,3.33334 0,2.07408 0.75556,3.33333 2,3.33333 1.1,0 2,-0.55093 2,-1.22428 z m 5.33334,9.41037 c 0,-18.15372 4.00544,-25.32916 6.24424,-11.18609 l 1.21361,7.66667 2.30832,-7.66667 c 1.56101,-5.18463 3.00023,-7.66667 4.44553,-7.66667 1.7277,0 1.97886,0.95806 1.31076,5 -0.45454,2.75 -0.83305,8.45 -0.84112,12.66667 -0.009,4.82912 -0.57573,7.66666 -1.53056,7.66666 -1.04949,0 -1.3,-2.68945 -0.81421,-8.74134 0.83704,-10.42764 -0.1032,-10.27527 -2.23409,0.36205 -0.84976,4.24195 -2.12044,7.58853 -2.82375,7.43688 -0.70331,-0.15167 -1.95548,-4.05167 -2.78261,-8.66666 l -1.5039,-8.39092 -0.16277,9 c -0.18441,10.19599 -2.82945,12.55121 -2.82945,2.51942 z m 18.12888,5.35577 c -1.20932,-1.95673 0.87242,-24.20853 2.26481,-24.20853 0.84252,0 1.02073,3.66967 0.48563,10 -0.84452,9.99068 -0.84222,10 2.47101,10 2.42744,0 3.31633,0.71476 3.31633,2.66667 0,2.06218 -0.88889,2.66666 -3.9213,2.66666 -2.15672,0 -4.23415,-0.50616 -4.61648,-1.1248 z m -56.79555,-8.20853 c 0,-0.73333 2.1,-1.33333 4.66667,-1.33333 2.56667,0 4.66666,0.6 4.66666,1.33333 0,0.73334 -2.09999,1.33334 -4.66666,1.33334 -2.56667,0 -4.66667,-0.6 -4.66667,-1.33334 z m -98.66666,-4.74536 c 0,-1.14328 0.60978,-1.70181 1.35508,-1.2412 0.74529,0.46062 1.00989,1.39603 0.58797,2.0787 -1.14297,1.84938 -1.94305,1.50454 -1.94305,-0.8375 z m -48.66667,-7.25464 c -0.45322,-0.73333 -3.63864,-1.3807 -7.07869,-1.4386 -3.44005,-0.0579 -5.45947,-0.42294 -4.48757,-0.81124 3.02566,-1.20882 19.54352,1.0243 17.43774,2.35748 -2.48673,1.57439 -4.85881,1.5309 -5.87148,-0.10764 z M 193,332.39235 c 1.65,-0.31782 4.35,-0.31782 5.99999,0 1.65,0.3178 0.3,0.57782 -2.99999,0.57782 -3.3,0 -4.65,-0.26002 -3,-0.57782 z m 11.90891,0.0721 c -1.33525,-1.33528 -1.10872,-8.46449 0.26898,-8.46449 1.52202,0 2.68977,6.05673 1.52966,7.93384 -0.48934,0.79176 -1.29872,1.03054 -1.79864,0.53064 z M 193,327.05901 c 1.65,-0.31781 4.35,-0.31781 5.99999,0 1.65,0.3178 0.3,0.57783 -2.99999,0.57783 -3.3,0 -4.65,-0.26003 -3,-0.57783 z m 0.33333,-7.05902 -6,-0.93282 7.07869,-0.20026 c 4.42545,-0.1252 6.76981,0.2995 6.25464,1.13308 -0.45323,0.73333 -0.93864,1.24321 -1.07869,1.13308 -0.14006,-0.11015 -2.95464,-0.62003 -6.25464,-1.13308 z m -7.88889,-5.81594 c 1.34889,-1.17174 15.86829,-1.89609 15.16398,-0.7565 -0.42119,0.6815 -4.1304,1.2391 -8.24266,1.2391 -4.11228,0 -7.22687,-0.21717 -6.92132,-0.4826 z m 82.55555,-36.85073 c 0,-0.73333 0.6,-1.33333 1.33334,-1.33333 0.73333,0 1.33333,0.6 1.33333,1.33333 0,0.73333 -0.6,1.33333 -1.33333,1.33333 -0.73334,0 -1.33334,-0.6 -1.33334,-1.33333 z m 112.33333,124.45029 c -0.91666,-0.36988 -2.41666,-0.36988 -3.33333,0 -0.91667,0.36988 -0.16667,0.67252 1.66667,0.67252 1.83333,0 2.58333,-0.30264 1.66666,-0.67252 z m -6.02777,-1.25585 c -0.44305,-0.44306 -1.59307,-0.49042 -2.55556,-0.1052 -1.06364,0.42562 -0.74771,0.74157 0.80556,0.80554 1.40555,0.0579 2.19305,-0.25724 1.75,-0.70029 z m -5.97223,-1.41082 c -0.91666,-0.36988 -2.41666,-0.36988 -3.33333,0 -0.91667,0.36988 -0.16667,0.67252 1.66667,0.67252 1.83333,0 2.58333,-0.30264 1.66666,-0.67252 z m -6.66666,-1.33333 c -0.91667,-0.36988 -2.41667,-0.36988 -3.33334,0 -0.91666,0.36988 -0.16666,0.67252 1.66667,0.67252 1.83333,0 2.58333,-0.30264 1.66667,-0.67252 z m -7.36111,-1.25585 c -0.44305,-0.44306 -1.59307,-0.49042 -2.55556,-0.1052 -1.06364,0.42562 -0.74771,0.74157 0.80556,0.80554 1.40555,0.0579 2.19305,-0.25724 1.75,-0.70029 z m -5.33333,-1.33334 c -0.44306,-0.44305 -1.59307,-0.49041 -2.55556,-0.1052 -1.06364,0.42563 -0.74771,0.74158 0.80556,0.80555 1.40554,0.0579 2.19305,-0.25724 1.75,-0.70029 z m -8.30556,-1.8611 c -1.46667,-0.63026 -3.56667,-1.14591 -4.66667,-1.14591 -1.26064,0 -1.01419,0.42361 0.66667,1.14591 1.46666,0.63025 3.56666,1.1459 4.66666,1.1459 1.26064,0 1.01419,-0.42361 -0.66666,-1.1459 z m -7.69444,-2.1389 c -0.44307,-0.44305 -1.59307,-0.49041 -2.55556,-0.1052 -1.06364,0.42563 -0.74771,0.74158 0.80556,0.80555 1.40554,0.0579 2.19305,-0.25724 1.75,-0.70029 z m -5.33333,-1.33333 c -0.44307,-0.44305 -1.59307,-0.49041 -2.55556,-0.1052 -1.06364,0.42563 -0.74771,0.74157 0.80556,0.80555 1.40554,0.0579 2.19305,-0.25724 1.75,-0.7003 z m -7.30556,-1.41081 c -0.91667,-0.36988 -2.41667,-0.36988 -3.33334,0 -0.91666,0.36988 -0.16666,0.67252 1.66667,0.67252 1.83333,0 2.58333,-0.30264 1.66667,-0.67252 z m -6.66667,-1.33334 c -0.91667,-0.36988 -2.41667,-0.36988 -3.33333,0 -0.91667,0.36988 -0.16667,0.67252 1.66666,0.67252 1.83334,0 2.58334,-0.30264 1.66667,-0.67252 z m -89.66667,-1.78362 c 0,-0.73334 0.63542,-1.33334 1.41203,-1.33334 0.77661,0 0.96144,0.75 0.41072,1.66667 -0.70475,1.17304 -0.34577,1.13516 1.21201,-0.12787 1.21732,-0.987 2.08251,-2.2077 1.92262,-2.71269 -0.1599,-0.50497 1.68973,-2.69743 4.11026,-4.87211 4.03279,-3.6232 4.23854,-4.17496 2.45936,-6.59529 -1.86153,-2.53236 -1.91449,-2.49941 -1.28402,0.79864 0.54569,2.85461 -0.31455,4.15488 -5.05536,7.64132 -3.14212,2.31073 -7.13016,4.20135 -8.86231,4.20135 -1.76004,0 -2.78583,0.58818 -2.32531,1.33333 0.45323,0.73333 1.98864,1.33333 3.41203,1.33333 1.42339,0 2.58797,-0.6 2.58797,-1.33333 z m 83,0.45029 c -0.91666,-0.36988 -2.41666,-0.36988 -3.33333,0 -0.91667,0.36988 -0.16667,0.67252 1.66667,0.67252 1.83333,0 2.58333,-0.30264 1.66666,-0.67252 z M 1086.39,384.33332 c -0.7608,-0.91667 -3.2597,-1.64759 -5.5533,-1.62427 -3.5595,0.0363 -3.8579,0.28021 -2.0378,1.66667 2.9556,2.25137 9.4646,2.21501 7.5911,-0.0424 z m -785.41778,0.19444 c -0.44307,-0.44306 -1.59307,-0.49042 -2.55556,-0.1052 -1.06364,0.42562 -0.74771,0.74157 0.80556,0.80554 1.40555,0.0579 2.19305,-0.25724 1.75,-0.70029 z m -5.33333,-1.33334 c -0.44307,-0.44305 -1.59307,-0.49041 -2.55556,-0.1052 -1.06364,0.42563 -0.74771,0.74158 0.80556,0.80555 1.40554,0.0579 2.19305,-0.25724 1.75,-0.70029 z m -6.66667,-1.33333 c -0.44307,-0.44305 -1.59307,-0.49041 -2.55556,-0.1052 -1.06364,0.42563 -0.74771,0.74157 0.80556,0.80555 1.40555,0.0579 2.19305,-0.25724 1.75,-0.7003 z m -49.08333,-4.04171 c 1.82976,-1.60088 -2.51006,-0.11413 -4.63406,1.5875 -2.44041,1.95516 -2.39786,1.98292 0.74516,0.48605 1.83334,-0.87312 3.58334,-1.80621 3.8889,-2.07355 z m 43.1111,2.6309 c -0.91666,-0.36988 -2.41666,-0.36988 -3.33333,0 -0.91667,0.36988 -0.16667,0.67252 1.66667,0.67252 1.83333,0 2.58333,-0.30264 1.66666,-0.67252 z m -7.3611,-1.25586 c -0.44307,-0.44305 -1.59307,-0.49041 -2.55556,-0.1052 -1.06364,0.42563 -0.74771,0.74158 0.80556,0.80555 1.40554,0.0579 2.19305,-0.25724 1.75,-0.70029 z m -25.08334,-4.0417 c 1.82976,-1.60088 -2.51005,-0.11414 -4.63405,1.58749 -2.44041,1.95516 -2.39787,1.98292 0.74516,0.48605 1.83333,-0.87312 3.58333,-1.80621 3.88889,-2.07354 z m 19.13648,2.63934 c -0.9027,-0.36522 -2.7027,-0.38745 -4,-0.0495 -1.29729,0.33805 -0.5587,0.63688 1.6413,0.66405 2.2,0.0272 3.26141,-0.24941 2.3587,-0.61465 z m -8.71981,-1.2643 c -0.44307,-0.44306 -1.59307,-0.49042 -2.55556,-0.1052 -1.06364,0.42562 -0.74771,0.74157 0.80556,0.80554 1.40555,0.0579 2.19305,-0.25724 1.75,-0.70029 z m -5.33333,-1.33334 c -0.44307,-0.44305 -1.59307,-0.49041 -2.55556,-0.1052 -1.06364,0.42563 -0.74771,0.74158 0.80556,0.80555 1.40554,0.0579 2.19305,-0.25724 1.75,-0.70029 z m -24.97223,-7.19444 c -1.1,-0.71088 -2.6,-1.29249 -3.33333,-1.29249 -0.73334,0 -0.43334,0.58161 0.66666,1.29249 1.1,0.71088 2.6,1.2925 3.33334,1.2925 0.73333,0 0.43333,-0.58162 -0.66667,-1.2925 z m -36.23646,-12.6809 c -1.11695,-1.11695 -24.17771,-8.68271 -24.7428,-8.1176 -0.2864,0.2864 4.76677,2.33587 11.22926,4.55436 11.76943,4.04029 14.786,4.83569 13.51354,3.56324 z m -27.76354,-9.98576 c -1.1,-0.71088 -2.9,-1.25952 -4,-1.2192 -1.31874,0.0483 -1.09165,0.46363 0.66667,1.2192 3.66545,1.57509 5.77063,1.57509 3.33333,0 z m 886.23974,-3.66667 c -1.69,-8.49398 -4.0895,-16.33333 -4.9994,-16.33333 -1.1448,0 -5.9069,7.79861 -7.146,11.70275 -0.6856,2.16004 0.1509,3.22265 4.1912,5.32396 7.3206,3.80737 8.8237,3.67634 7.9542,-0.69338 z m 172.3588,-14.73424 c 3.2074,-9.59369 2.6942,-11.84097 -2.0014,-8.76425 -2.9159,1.91057 -3.2638,3.07437 -3.2638,10.91851 0,10.30461 1.2741,9.7833 5.2652,-2.15426 z m -96.5047,3.22707 c 0.7323,-2.96312 0.5254,-3.70117 -0.9057,-3.23065 -1.0201,0.33542 -2.0476,2.66365 -2.2832,5.17384 -0.5052,5.38166 1.7125,4.0303 3.1889,-1.94319 z m -148.42719,-4.37587 c -0.91667,-0.36988 -2.41667,-0.36988 -3.33333,0 -0.91667,0.36988 -0.16667,0.67252 1.66666,0.67252 1.83334,0 2.58334,-0.30264 1.66667,-0.67252 z m -745.66665,-4.45029 c 0,-0.73333 -0.6,-1.33333 -1.33333,-1.33333 -0.73334,0 -1.33334,0.6 -1.33334,1.33333 0,0.73333 0.6,1.33333 1.33334,1.33333 0.73333,0 1.33333,-0.6 1.33333,-1.33333 z m 750.55554,-0.52203 c -8.02362,-7.53946 -17.77926,-13.41714 -12.96501,-7.8113 3.87487,4.51201 4.04251,5.667 0.82148,5.65953 -2.19623,-0.005 -4.59587,-2.10709 -8.37172,-7.33333 -6.549,-9.06463 -8.76096,-9.62095 -3.36132,-0.8454 2.19323,3.56444 3.98768,6.76052 3.98768,7.10241 0,0.34188 -1.8,0.35743 -4,0.0345 -2.28983,-0.33608 -4,0.0149 -4,0.82092 0,0.7744 2.55,1.63768 5.66667,1.91839 8.41753,0.75816 22.85982,1.05337 22.22222,0.45425 z m 245.1097,-9.8113 c 1.4371,-4.18347 0.8257,-10.80188 -1.2262,-13.27422 -1.1061,-1.33278 4.6867,-1.7527 28.4192,-2.06008 l 29.8084,-0.38605 -34.1204,-0.30649 -34.1203,-0.3065 -8.5463,-4.33333 -8.5463,-4.33333 -22,0.0572 c -17.6214,0.0459 -23.7249,0.56432 -30.6667,2.60498 -6.624,1.94727 -14.6374,2.7194 -34,3.2761 -21.9007,0.62965 -16.842,0.88166 37.3333,1.85988 53.1416,0.95954 63.2081,1.44985 66.2289,3.22576 4.8581,2.85608 6.5538,6.53961 7.6615,16.6427 0.2596,2.36734 2.618,0.70126 3.7749,-2.66666 z m -617.66525,-0.22976 2.66667,-1.04234 -2.66667,-0.76656 c -1.46667,-0.4216 -5.21667,-1.16312 -8.33333,-1.64781 -4.42195,-0.68768 -5.66667,-0.46501 -5.66667,1.01372 0,1.04223 0.4,2.29497 0.88889,2.78385 1.18752,1.18754 9.77191,0.96435 13.11111,-0.34086 z m 704.76515,-5.80728 -3.0866,-2.96296 2.3413,3.70828 c 1.2877,2.03954 2.6767,3.37288 3.0867,2.96296 0.4099,-0.40992 -0.6437,-2.07866 -2.3414,-3.70828 z m -252.7652,-0.96796 c 0,-1.44059 -1.185,-1.88124 -4.2642,-1.58563 -4.9753,0.47764 -11.0691,-3.01747 -11.0691,-6.34869 0,-2.96876 -5.3938,-5.39402 -11.9965,-5.39402 -3.5463,0 -5.6154,-0.73452 -6.4946,-2.30558 -1.2143,-2.16984 -1.4507,-2.16036 -4.0161,0.16122 -3.119,2.82268 -6.0754,10.7029 -5.0338,13.41736 0.5037,1.31266 2.2336,1.62428 6.1216,1.10279 3.4087,-0.45721 5.4194,-0.19841 5.4194,0.69751 0,1.74534 5.2028,2.34093 20,2.28946 9.155,-0.0319 11.3333,-0.42286 11.3333,-2.03442 z m -420.12367,-2.76435 c 1.77296,1.47143 2.27897,1.20127 3.43245,-1.83263 0.74412,-1.95717 1.95407,-3.18697 2.68878,-2.7329 0.7347,0.45408 1.33582,-0.10987 1.33582,-1.2531 0,-2.59676 4.4696,-2.726 6.57422,-0.19009 1.24412,1.49907 1.07154,2.01973 -0.83675,2.52441 -1.32227,0.3497 -0.30413,0.70423 2.26253,0.78787 2.56667,0.0836 7.70058,0.4048 11.4087,0.71371 3.70812,0.30892 7.40029,0.1545 8.20484,-0.34314 0.80453,-0.49762 2.71058,-4.45541 4.23564,-8.79506 3.52776,-10.03843 2.54424,-11.44306 -8.01243,-11.44306 -5.67576,0 -7.83675,0.49452 -7.83675,1.79335 0,3.31144 -4.49144,6.02064 -9.33333,5.62977 -2.56667,-0.20718 -6.05208,-0.46214 -7.74536,-0.56658 -1.69328,-0.1044 -2.70787,-0.78987 -2.25464,-1.5232 0.45323,-0.73334 -0.11133,-1.33334 -1.25464,-1.33334 -1.14328,0 -2.07869,-0.6 -2.07869,-1.33333 0,-3.67128 -17.72147,0.48807 -28.75511,6.74901 -7.08733,4.02166 -14.12596,10.50991 -9.62093,8.86864 1.25985,-0.45898 2.60152,-0.33152 2.98146,0.28327 0.63202,1.02261 11.0811,2.54233 23.81667,3.46391 2.79881,0.20253 5.45783,0.73732 5.90892,1.18841 0.45109,0.45109 1.26543,0.0997 1.80963,-0.7808 0.76157,-1.23225 1.46837,-1.20349 3.06897,0.12493 z M 1295,296.45028 c -0.9167,-0.36988 -2.4167,-0.36988 -3.3334,0 -0.9166,0.36988 -0.1666,0.67252 1.6667,0.67252 1.8333,0 2.5833,-0.30264 1.6667,-0.67252 z m -930.08094,-9.31855 c 6.98337,-0.82076 7.08093,-0.894 7.08093,-5.31532 0,-5.51453 -1.70009,-5.69346 -10.71099,-1.12729 -7.48876,3.79484 -9.18585,2.63115 -1.8916,-1.29707 6.48678,-3.49336 4.09038,-4.56116 -13.73989,-6.12233 -7.87831,-0.6898 -18.77765,-1.85421 -24.22076,-2.5876 -5.44312,-0.73337 -10.11854,-1.11146 -10.38982,-0.84018 -0.27128,0.27128 0.96254,3.78502 2.74184,7.80831 5.08686,11.50231 6.46285,12.07338 26.79695,11.1214 9.48882,-0.44424 20.43882,-1.1822 24.33334,-1.63992 z m 28.2847,-3.24002 c -1.02873,-0.65132 -2.92044,-1.19342 -4.20377,-1.20464 -1.43764,-0.0126 -2.33333,-1.04407 -2.33333,-2.68708 0,-2.31911 -0.8889,-2.66667 -6.82002,-2.66667 -6.75152,0 -6.80077,0.0301 -4.90366,3 1.05398,1.65 2.26438,3.6 2.68977,4.33333 0.43311,0.74663 4.44067,1.13003 9.10745,0.8713 5.5148,-0.30574 7.70128,-0.86263 6.46356,-1.64624 z m -20.81448,-11.49203 c -1.61921,-0.31377 -4.21814,-2.63206 -5.77541,-5.15176 -3.7366,-6.04596 -4.25767,-5.79194 -1.51487,0.73851 1.93482,4.60665 2.77052,5.29725 6.23432,5.15176 3.03544,-0.12747 3.29008,-0.30559 1.05596,-0.73851 z m -19.05596,-2.53554 c -6.96666,-1.01714 -13.26666,-1.6382 -14,-1.38018 -1.86821,0.65735 14.87176,3.1706 21.33334,3.20287 2.93333,0.0147 -0.36667,-0.80556 -7.33334,-1.82269 z m -19.02777,-2.66971 c -0.44307,-0.44305 -1.59307,-0.49041 -2.55556,-0.1052 -1.06364,0.42563 -0.7477,0.74157 0.80556,0.80555 1.40555,0.0579 2.19305,-0.25724 1.75,-0.7003 z m 397.64575,-0.19444 c -0.0615,-1.26331 -10.25188,-7.75321 -15.02124,-9.56652 -4.6749,-1.7774 -5.04512,-7.60391 -0.59674,-9.39193 l 3,-1.20586 -2.92131,-0.0845 c -1.60672,-0.0465 -3.33208,0.58012 -3.83413,1.39244 -0.54475,0.88143 -2.86139,1.17668 -5.74535,0.73223 -3.16319,-0.48747 -5.7266,-0.0765 -7.42072,1.1897 -1.42349,1.06395 -3.82349,2.00404 -5.33333,2.08911 -2.24963,0.1268 -2.32398,0.26473 -0.41183,0.76444 1.28333,0.33536 2.33333,0.71972 2.33333,0.85413 0,0.1344 -0.53506,2.11006 -1.18905,4.39034 -0.65397,2.28028 -0.79665,4.78086 -0.31707,5.55685 1.4852,2.40311 37.56857,5.56237 37.45744,3.27957 z m -339.06242,-8.81707 c 0,-1.11112 -0.95774,-1.5666 -2.46522,-1.17238 -3.80732,0.99564 -4.29058,2.98945 -0.72458,2.98945 1.80376,0 3.1898,-0.78956 3.1898,-1.81707 z m 169.44444,-2.16473 c 0.91667,-0.0107 1.66667,-1.25361 1.66667,-2.76356 0,-1.50995 -0.60424,-2.37191 -1.34275,-1.91548 -0.73852,0.45641 -1.70271,-0.10813 -2.14265,-1.25465 -1.23872,-3.22804 -2.78108,-2.48418 -4.38416,2.11445 -1.93615,5.55403 -1.9307,5.57052 1.53622,4.64143 1.65,-0.44219 3.75,-0.81218 4.66667,-0.82219 z m -245.66666,-6.0486 c -8.27128,-2.12607 -12.31188,-2.40484 -10.6,-0.73133 1.24973,1.22172 7.43555,2.28276 13.93333,2.38996 1.83334,0.0303 0.33334,-0.71614 -3.33333,-1.65863 z M 136.90045,248.456 c -0.48252,-0.48253 -0.27397,-1.6043 0.46344,-2.49284 1.02297,-1.2326 -1.27104,-1.83382 -9.67823,-2.5365 -6.06045,-0.50655 -14.919,-1.4555 -19.68566,-2.10876 -15.583336,-2.1357 -21.333336,-2.5263 -21.333336,-1.44918 0,0.58292 5.25,1.70326 11.666667,2.48963 L 110,243.78812 97.999998,243.1362 c -6.6,-0.35856 -14.7,-1.20728 -18,-1.88605 -7.14627,-1.46992 -45.322367,-5.49888 -56.666665,-5.98039 -6.750847,-0.28654 -6.282413,-0.1232 3,1.04571 6.05,0.76189 10.999999,1.8876 10.999999,2.50156 0,0.61396 1.65,0.78763 3.666667,0.38592 2.016667,-0.40171 15.966666,0.77821 30.999999,2.62207 15.033333,1.84384 33.933332,3.99085 42.000002,4.77113 16.38984,1.58537 22.40138,2.24223 23.22222,2.5374 0.30555,0.10987 0.16076,-0.19503 -0.32177,-0.67755 z M 127.75,245.75584 c 0.9625,-0.38516 2.1125,-0.3378 2.55555,0.1052 0.44306,0.44306 -0.34444,0.75819 -1.75,0.7003 -1.55325,-0.064 -1.8692,-0.37992 -0.80555,-0.80555 z m -14.08334,-1.34162 c 1.28334,-0.33536 3.38334,-0.33536 4.66667,0 1.28333,0.33537 0.23333,0.60977 -2.33333,0.60977 -2.56667,0 -3.61667,-0.2744 -2.33334,-0.60977 z m 182.33333,2.09506 c 0,-0.73333 -0.6,-0.96252 -1.33333,-0.50929 -0.73333,0.45323 -1.33333,1.42404 -1.33333,2.15737 0,0.73334 0.6,0.96252 1.33333,0.5093 0.73333,-0.45323 1.33333,-1.42404 1.33333,-2.15738 z m -144.33333,-0.76173 c -1.28333,-0.33536 -3.38333,-0.33536 -4.66666,0 -1.28334,0.33537 -0.23334,0.60977 2.33333,0.60977 2.56667,0 3.61667,-0.2744 2.33333,-0.60977 z M 310.04931,202.5713 c 2.29832,-4.44448 2.57647,-10.57131 0.47992,-10.57131 -0.80892,0 -4.45633,-2.68428 -8.10536,-5.96508 -4.53737,-4.07948 -9.02478,-6.65664 -14.1959,-8.15285 -12.49987,-3.61668 -13.08734,-3.99563 -14.62326,-9.43285 -4.25556,-15.06486 -11.7769,-39.56356 -20.08037,-65.40617 -5.13248,-15.973676 -11.85005,-37.143043 -14.92796,-47.043042 -9.62089,-30.945387 -11.40787,-35.11804 -15.88915,-37.101648 -2.18802,-0.968512 -4.64916,-1.346267 -5.4692,-0.839453 -0.82005,0.506814 -11.48408,1.049253 -23.69785,1.205421 -13.58682,0.173725 -28.00218,1.215581 -37.13674,2.684025 l -14.92991,2.400083 -0.40343,4.825786 c -0.22189,2.654183 -0.005,12.025786 0.48234,20.825786 0.48717,8.799999 1.54528,32.120405 2.35134,51.823122 0.80606,19.70272 1.76574,36.30881 2.1326,36.90242 0.36687,0.5936 0.26803,5.37255 -0.21966,10.61988 -1.03391,11.12443 -1.05308,11.13893 -17.44978,13.19859 C 122.66512,163.26023 113.5,165.29186 108,167.05873 l -10.000002,3.21248 17.333332,-0.6554 c 12.65007,-0.47831 17.62142,-1.14539 18.39959,-2.46894 1.2278,-2.08832 6.26708,-2.47445 6.26708,-0.48021 0,0.73333 0.45,1.26228 1,1.17544 0.55,-0.0868 1.3,-0.0409 1.66666,0.102 3.1065,1.21112 27.2908,4.4786 52.4337,7.0842 7.45295,0.77237 9.13969,-1.09509 5.7129,-6.32504 -2.84717,-4.34533 -2.71386,-4.87883 0.8534,-3.41537 1.65,0.6769 15.94027,3.94673 31.75616,7.26626 15.81589,3.31955 34.96597,7.53918 42.55573,9.37694 7.58976,1.83777 15.14298,3.00422 16.78492,2.59212 7.06272,-1.77263 15.35066,9.40622 12.67155,17.09153 -0.78927,2.26408 -1.43503,4.60813 -1.43503,5.20902 0,2.29375 4.18572,-0.64868 6.04932,-4.25248 z m -86.60353,-34.38936 c -0.39137,-0.63325 -0.62857,-3.35976 -0.52711,-6.05888 0.10147,-2.69912 0.53628,-4.34149 0.96624,-3.64971 0.42996,0.69179 2.28175,1.4683 4.11508,1.72555 2.66608,0.37413 3.41698,1.33519 3.75115,4.80109 0.3876,4.02003 0.12813,4.33334 -3.58797,4.33334 -2.20319,0 -4.32602,-0.51812 -4.71739,-1.15139 z m -6.92935,-30.09265 c -0.44096,-1.14911 -2.18421,-2.0893 -3.8739,-2.0893 -9.69564,0 -15.91632,-23.90228 -8.5353,-32.79589 1.25518,-1.51238 0.94662,-1.90104 -1.61065,-2.02875 -1.73979,-0.0869 -3.8848,-0.0671 -4.76669,0.0439 -0.88191,0.11105 -2.27824,-2.367866 -3.10299,-5.508695 -0.82473,-3.140828 -2.95318,-10.784659 -4.72988,-16.986288 -1.7767,-6.201631 -3.23036,-11.751631 -3.23036,-12.333334 0,-0.581704 2.15834,-1.057642 4.79631,-1.057642 4.09353,0 6.11168,1.269881 13.77341,8.666666 4.93741,4.766666 9.96524,8.666666 11.17296,8.666666 2.53968,0 6.76564,-5.808368 5.96768,-8.202258 -0.29719,-0.891572 -2.9036,-1.660799 -5.79203,-1.709391 l -5.25166,-0.08835 -0.71007,-7.067715 c -0.39053,-3.887242 -0.44053,-7.337242 -0.11107,-7.666666 1.35839,-1.358388 9.09035,-0.461773 11.68402,1.354906 4.43821,3.108647 7.35368,10.715693 7.06918,18.444965 -0.14037,3.81398 0.16823,7.949461 0.6858,9.189958 1.56834,3.758941 0.21775,6.960996 -3.73517,8.855581 -4.98151,2.387572 -4.11183,2.882841 2.82856,1.610819 6.81613,-1.249252 6.76425,-1.317288 10.99501,14.419028 2.50879,9.33143 2.69468,11.33123 1.14452,12.31291 -3.14433,1.99124 -5.3985,1.34499 -6.23361,-1.78712 -0.79589,-2.98504 -0.80387,-2.98341 -1.60031,0.32633 -0.44961,1.86847 -1.94353,3.53221 -3.40862,3.79609 -3.9658,0.71426 -4.98764,2.26703 -5.13762,7.80699 -0.12186,4.50272 -0.54874,5.11792 -3.8115,5.49321 -2.39608,0.27562 -3.95315,-0.30417 -4.47598,-1.66666 z m 2.20919,-14.82701 c 2.5712,-3.0981 2.07435,-9.55907 -0.99508,-12.9398 -3.06687,-3.3779 -5.02037,-9.87373 -3.17139,-10.545471 1.83666,-0.667257 0.0619,-7.777013 -1.94128,-7.777013 -0.95585,0 -4.84673,-3.45 -8.6464,-7.666666 l -6.90847,-7.666667 0.9717,4.666667 c 1.67155,8.027737 3.05451,10.44813 6.22679,10.897851 3.09956,0.439411 3.17688,0.683916 3.61598,11.435479 0.0852,2.08635 0.9474,3 2.83103,3 1.48969,0 3.0544,0.90134 3.47713,2.00298 1.2739,3.31971 -0.80116,8.89996 -3.57969,9.62657 -2.95055,0.77158 -3.37536,3.0677 -1.00595,5.43712 2.2423,2.24229 7.08104,1.99253 9.12563,-0.47105 z m 13.25396,-11.59562 c -0.0107,-0.91666 -0.53075,-2.47184 -1.15447,-3.45593 -0.82806,-1.30651 -1.31228,-0.85684 -1.79468,1.66667 -0.44925,2.35011 -0.0799,3.45593 1.15446,3.45593 0.9983,0 1.80592,-0.75 1.79469,-1.66667 z m -5.97959,-20.999997 c 0.45323,-0.733334 0.18864,-1.333333 -0.58797,-1.333333 -0.77661,0 -1.41203,0.599999 -1.41203,1.333333 0,0.733333 0.26459,1.333333 0.58798,1.333333 0.32338,0 0.9588,-0.6 1.41202,-1.333333 z m -8.66666,-22.666666 c 0,-0.733333 -0.26459,-1.333333 -0.58798,-1.333333 -0.32338,0 -0.9588,0.6 -1.41202,1.333333 -0.45323,0.733333 -0.18864,1.333333 0.58797,1.333333 0.77661,0 1.41203,-0.6 1.41203,-1.333333 z m -42.66667,5.333333 c 0,-0.733333 1.8,-1.333333 4,-1.333333 2.2,0 4,0.6 4,1.333333 0,0.733333 -1.8,1.333333 -4,1.333333 -2.2,0 -4,-0.6 -4,-1.333333 z M 180,49.836738 c 0,-1.77172 0.36198,-1.862835 2,-0.503407 1.1,0.912919 2,1.886385 2,2.16326 0,0.276873 -0.9,0.503407 -2,0.503407 -1.1,0 -2,-0.973467 -2,-2.16326 z m 26.66666,0.496593 c 0,-1.038889 0.91667,-1.888889 2.03704,-1.888889 2.30497,0 1.96376,2.444178 -0.45371,3.25 -0.87084,0.290278 -1.58333,-0.322222 -1.58333,-1.361111 z M 86.666664,183.99999 c 0,-0.73333 -0.264589,-1.33333 -0.587977,-1.33333 -0.323388,0 -0.958797,0.6 -1.412022,1.33333 -0.453226,0.73334 -0.188635,1.33334 0.587977,1.33334 0.776612,0 1.412022,-0.6 1.412022,-1.33334 z m 50.305556,-27.47222 c -0.44306,-0.44306 -1.59306,-0.49042 -2.55556,-0.1052 -1.06364,0.42562 -0.7477,0.74157 0.80556,0.80554 1.40555,0.0579 2.19306,-0.25722 1.75,-0.70029 z"/>
    </g>
</svg>
